<svg width="500" height="500" viewBox="0 0 500 500" fill="none" xmlns="http://www.w3.org/2000/svg">
<g clip-path="url(#clip0_317_45)">
<path fill-rule="evenodd" clip-rule="evenodd" d="M438.912 0C472.628 0 500 27.373 500 61.0879V438.912C500 472.627 472.627 500 438.912 500H334.939V311.606H399.979L412.354 230.922H334.939V178.562C334.939 156.488 345.753 134.972 380.428 134.972H415.625V66.2803C415.625 66.2803 383.682 60.8291 353.143 60.8291C289.385 60.8291 247.713 99.4707 247.713 169.427V230.922H176.841V311.606H247.713V500H61.0879C27.373 500 0 472.627 0 438.912V61.0879C0 27.373 27.3721 0 61.0879 0L438.912 0Z" fill="white"/>
</g>
<defs>
<clipPath id="clip0_317_45">
<rect width="500" height="500" fill="white"/>
</clipPath>
</defs>
</svg>
