<svg width="500" height="500" viewBox="0 0 500 500" fill="none" xmlns="http://www.w3.org/2000/svg">
<path fill-rule="evenodd" clip-rule="evenodd" d="M438.912 0C472.628 0 500 27.373 500 61.0879V438.912C500 472.627 472.627 500 438.912 500H61.0879C27.373 500 0 472.627 0 438.912V61.0879C0 27.373 27.3721 0 61.0879 0L438.912 0ZM250 79.1016C203.587 79.1016 197.767 79.2979 179.539 80.1299C161.349 80.96 148.926 83.8486 138.055 88.0742C126.816 92.4414 117.286 98.2852 107.785 107.785C98.2842 117.286 92.4404 126.817 88.0732 138.055C83.8486 148.926 80.96 161.349 80.1289 179.539C79.2979 197.767 79.1016 203.587 79.1016 250C79.1016 296.413 79.2979 302.233 80.1289 320.461C80.96 338.651 83.8486 351.074 88.0732 361.945C92.4404 373.183 98.2842 382.714 107.785 392.215C117.286 401.716 126.816 407.56 138.055 411.927C148.926 416.151 161.349 419.04 179.539 419.87C197.767 420.702 203.587 420.898 250 420.898C296.413 420.898 302.233 420.702 320.461 419.87C338.651 419.04 351.074 416.151 361.945 411.927C373.183 407.56 382.714 401.716 392.215 392.215C401.716 382.714 407.56 373.183 411.927 361.945C416.151 351.074 419.04 338.651 419.87 320.461C420.702 302.233 420.898 296.413 420.898 250C420.898 203.587 420.702 197.767 419.87 179.539C419.04 161.349 416.151 148.926 411.927 138.055C407.56 126.817 401.716 117.286 392.215 107.785C382.714 98.2852 373.183 92.4414 361.945 88.0742C351.074 83.8486 338.651 80.96 320.461 80.1299C302.233 79.2979 296.413 79.1016 250 79.1016ZM250 109.895C295.632 109.895 301.037 110.068 319.058 110.891C335.72 111.651 344.769 114.436 350.791 116.774C358.769 119.875 364.461 123.579 370.441 129.559C376.422 135.539 380.125 141.232 383.226 149.209C385.565 155.231 388.35 164.28 389.109 180.942C389.932 198.963 390.106 204.368 390.106 250C390.106 295.632 389.932 301.037 389.109 319.058C388.35 335.72 385.565 344.769 383.226 350.791C380.125 358.769 376.422 364.461 370.441 370.441C364.461 376.422 358.769 380.125 350.791 383.226C344.769 385.565 335.72 388.35 319.058 389.109C301.04 389.932 295.635 390.106 250 390.106C204.365 390.106 198.961 389.932 180.942 389.109C164.28 388.35 155.231 385.565 149.209 383.226C141.231 380.125 135.539 376.422 129.559 370.441C123.578 364.461 119.874 358.769 116.774 350.791C114.435 344.769 111.65 335.72 110.89 319.058C110.067 301.037 109.894 295.632 109.894 250C109.894 204.368 110.067 198.963 110.89 180.942C111.65 164.28 114.435 155.231 116.774 149.209C119.874 141.232 123.578 135.539 129.559 129.559C135.539 123.579 141.231 119.875 149.209 116.774C155.231 114.436 164.28 111.651 180.942 110.891C198.963 110.068 204.368 109.895 250 109.895ZM250 162.241C201.532 162.241 162.241 201.532 162.241 250C162.241 298.468 201.532 337.759 250 337.759C298.468 337.759 337.759 298.468 337.759 250C337.759 201.532 298.468 162.241 250 162.241ZM250 306.966C218.538 306.966 193.034 281.462 193.034 250C193.034 218.538 218.538 193.034 250 193.034C281.462 193.034 306.966 218.538 306.966 250C306.966 281.462 281.462 306.966 250 306.966ZM361.734 158.774C361.734 170.101 352.552 179.281 341.226 179.281C329.9 179.281 320.719 170.101 320.719 158.774C320.719 147.448 329.9 138.267 341.226 138.267C352.552 138.267 361.734 147.448 361.734 158.774Z" fill="white"/>
</svg>
