<svg width="690" height="670" viewBox="0 0 690 670" fill="none" xmlns="http://www.w3.org/2000/svg">
<path d="M446.568 396.172H565.559" stroke="white" stroke-width="5"/>
<path d="M267.704 0H116.088L133.852 32.2237V65.6867V133.026V267.704H267.704V0Z" fill="white"/>
<path d="M0 570.525L267.704 534.992V669.037H133.852C59.903 669.037 0 644.474 0 570.525Z" fill="white"/>
<path d="M267.704 267.704H133.852V535.409H267.704V267.704Z" fill="white"/>
<path d="M391.889 44.617C401.746 44.617 409.736 36.6267 409.736 26.7701C409.736 16.9134 401.746 8.9231 391.889 8.9231C382.033 8.9231 374.042 16.9134 374.042 26.7701C374.042 36.6267 382.033 44.617 391.889 44.617Z" fill="white"/>
<path d="M374.539 330.581H309.348V460.963H374.539V330.581Z" fill="white"/>
<path d="M133.853 401.556V267.704L20.6572 464.764C44.2879 426.922 86.0134 401.556 133.853 401.556Z" fill="white"/>
<path d="M267.704 401.557V536.391L0 575.482C0 500.991 15.8058 401.557 133.026 401.557H267.704Z" fill="white"/>
<path d="M538.301 178.47C548.157 178.47 556.148 170.479 556.148 160.623C556.148 150.766 548.157 142.776 538.301 142.776C528.444 142.776 520.454 150.766 520.454 160.623C520.454 170.479 528.444 178.47 538.301 178.47Z" fill="white"/>
<path d="M583.001 607.54C592.857 607.54 600.848 599.55 600.848 589.693C600.848 579.837 592.857 571.846 583.001 571.846C573.144 571.846 565.154 579.837 565.154 589.693C565.154 599.55 573.144 607.54 583.001 607.54Z" fill="white"/>
<path d="M672.153 660.338C682.009 660.338 690 652.348 690 642.491C690 632.635 682.009 624.644 672.153 624.644C662.296 624.644 654.306 632.635 654.306 642.491C654.306 652.348 662.296 660.338 672.153 660.338Z" fill="white"/>
<path d="M342.067 258.864V150.46" stroke="white" stroke-width="5"/>
<path d="M520.454 160.623H401.557" stroke="white" stroke-width="5"/>
<path d="M401.557 158.558V261.757" stroke="white" stroke-width="5"/>
<path d="M401.639 533.922V591.76" stroke="white" stroke-width="5"/>
<path d="M565.154 589.694H401.557" stroke="white" stroke-width="5"/>
<path d="M334.63 532.435V644.557" stroke="white" stroke-width="5"/>
<path d="M654.306 642.49H334.63" stroke="white" stroke-width="5"/>
<path d="M392.22 101.05L341.489 151.864" stroke="white" stroke-width="5"/>
<path d="M391.89 44.6172V104.107" stroke="white" stroke-width="5"/>
<path d="M512.012 514.46C521.868 514.46 529.858 506.469 529.858 496.613C529.858 486.756 521.868 478.766 512.012 478.766C502.155 478.766 494.165 486.756 494.165 496.613C494.165 506.469 502.155 514.46 512.012 514.46Z" fill="white"/>
<path d="M506.178 496.964H435.369" stroke="white" stroke-width="5"/>
<path d="M309.843 293.319V255.724H449.066V535.409H309.843V498.228H411.885V293.319H309.843Z" fill="white" stroke="white"/>
<path d="M582.006 413.667C591.863 413.667 599.853 405.676 599.853 395.82C599.853 385.963 591.863 377.973 582.006 377.973C572.15 377.973 564.159 385.963 564.159 395.82C564.159 405.676 572.15 413.667 582.006 413.667Z" fill="white"/>
<path d="M486.579 443.768H415.77" stroke="white" stroke-width="5"/>
<path d="M511.778 296.779H440.968" stroke="white" stroke-width="5"/>
<path d="M512.012 314.274C521.868 314.274 529.858 306.283 529.858 296.427C529.858 286.57 521.868 278.58 512.012 278.58C502.155 278.58 494.165 286.57 494.165 296.427C494.165 306.283 502.155 314.274 512.012 314.274Z" fill="white"/>
<path d="M486.579 349.975H415.77" stroke="white" stroke-width="5"/>
</svg>
