<svg width="420" height="154" viewBox="0 0 420 154" fill="none" xmlns="http://www.w3.org/2000/svg">
<path fill-rule="evenodd" clip-rule="evenodd" d="M166.24 118.694C166.6 118.333 167.043 118.153 167.567 118.153C168.059 118.153 168.485 118.333 168.846 118.694C169.206 119.087 169.387 119.529 169.387 120.021C169.387 120.513 169.206 120.939 168.846 121.299C168.485 121.66 168.059 121.84 167.567 121.84C167.043 121.84 166.6 121.66 166.24 121.299C165.879 120.939 165.699 120.513 165.699 120.021C165.699 119.529 165.879 119.087 166.24 118.694ZM165.994 123.365H169.141V134.133H165.994V123.365ZM171.747 123.365H174.697V124.889C175.025 124.299 175.467 123.84 176.024 123.512C176.582 123.217 177.221 123.07 177.942 123.07C179.253 123.07 180.236 123.447 180.892 124.2C181.58 124.954 181.925 126.069 181.925 127.544V134.133H178.778V127.937C178.778 126.495 178.171 125.774 176.959 125.774C176.336 125.774 175.828 125.971 175.434 126.364C175.074 126.757 174.893 127.265 174.893 127.888V134.133H171.747V123.365ZM189.103 118.694C189.464 118.333 189.906 118.153 190.431 118.153C190.922 118.153 191.349 118.333 191.709 118.694C192.07 119.054 192.25 119.497 192.25 120.021C192.25 120.513 192.07 120.939 191.709 121.299C191.349 121.66 190.922 121.84 190.431 121.84C189.906 121.84 189.464 121.66 189.103 121.299C188.743 120.939 188.562 120.513 188.562 120.021C188.562 119.497 188.743 119.054 189.103 118.694ZM188.857 123.365H191.955V134.133H188.857V123.365ZM194.61 123.365H197.56V124.889C197.888 124.299 198.331 123.84 198.888 123.512C199.445 123.217 200.068 123.07 200.756 123.07C202.1 123.07 203.1 123.447 203.756 124.2C204.444 124.954 204.788 126.069 204.788 127.544V134.133H201.641V127.937C201.641 126.495 201.035 125.774 199.822 125.774C199.166 125.774 198.658 125.954 198.298 126.315C197.937 126.708 197.757 127.233 197.757 127.888V134.133H194.61V123.365ZM208.82 119.579C209.541 118.857 210.574 118.497 211.918 118.497C212.672 118.497 213.262 118.595 213.688 118.792V121.398C213.229 121.234 212.803 121.152 212.409 121.152C211.918 121.152 211.541 121.283 211.278 121.545C210.983 121.808 210.836 122.185 210.836 122.676V123.365H213.589V125.774H210.836V134.133H207.689V125.774H206.214V123.365H207.689V122.676C207.689 121.332 208.066 120.3 208.82 119.579ZM217.179 133.739C216.294 133.248 215.622 132.576 215.163 131.723C214.671 130.871 214.425 129.888 214.425 128.773C214.425 127.659 214.671 126.659 215.163 125.774C215.622 124.922 216.294 124.25 217.179 123.758C218.064 123.266 219.113 123.02 220.325 123.02C221.571 123.02 222.636 123.266 223.521 123.758C224.406 124.25 225.078 124.938 225.537 125.823C226.029 126.675 226.275 127.675 226.275 128.822C226.275 129.937 226.029 130.92 225.537 131.772C225.078 132.592 224.406 133.248 223.521 133.739C222.636 134.198 221.587 134.428 220.375 134.428C219.129 134.428 218.064 134.198 217.179 133.739ZM218.408 131.035C218.867 131.559 219.522 131.822 220.375 131.822C221.194 131.822 221.833 131.559 222.292 131.035C222.784 130.478 223.03 129.74 223.03 128.822C223.03 127.839 222.784 127.069 222.292 126.511C221.833 125.954 221.178 125.676 220.325 125.676C219.506 125.676 218.867 125.954 218.408 126.511C217.916 127.069 217.67 127.823 217.67 128.773C217.67 129.724 217.916 130.478 218.408 131.035ZM228.389 123.365H231.339V125.282C231.602 124.659 231.978 124.168 232.47 123.807C232.962 123.479 233.519 123.315 234.142 123.315C234.437 123.315 234.732 123.348 235.027 123.414V126.413C234.666 126.282 234.289 126.216 233.896 126.216C233.208 126.216 232.634 126.429 232.175 126.856C231.749 127.249 231.536 127.823 231.536 128.576V134.133H228.389V123.365ZM236.846 123.365H239.747V124.889C240.075 124.299 240.501 123.84 241.026 123.512C241.55 123.184 242.14 123.02 242.796 123.02C244.631 123.02 245.844 123.758 246.434 125.233C246.762 124.545 247.204 124.004 247.762 123.61C248.319 123.217 248.958 123.02 249.679 123.02C250.99 123.02 251.974 123.414 252.629 124.2C253.318 124.954 253.662 126.069 253.662 127.544V134.133H250.515V127.937C250.515 126.462 249.909 125.725 248.696 125.725C248.139 125.725 247.68 125.921 247.319 126.315C246.991 126.708 246.811 127.233 246.778 127.888V134.133H243.681V127.937C243.681 126.462 243.058 125.725 241.812 125.725C241.288 125.725 240.845 125.921 240.485 126.315C240.124 126.708 239.944 127.233 239.944 127.888V134.133H236.846V123.365ZM256.514 133.543C255.858 132.92 255.53 132.1 255.53 131.084C255.53 129.15 256.841 128.019 259.464 127.691C260.119 127.626 260.611 127.56 260.939 127.495C261.267 127.396 261.496 127.298 261.627 127.2C261.726 127.101 261.775 126.97 261.775 126.806C261.775 126.446 261.611 126.167 261.283 125.971C260.922 125.741 260.398 125.626 259.71 125.626C258.53 125.626 257.333 126.036 256.12 126.856V124.2C256.645 123.873 257.251 123.594 257.94 123.365C258.595 123.135 259.316 123.02 260.103 123.02C261.676 123.02 262.856 123.414 263.643 124.2C264.397 124.987 264.774 126.085 264.774 127.495V134.133H262.217L262.168 132.756C261.84 133.313 261.414 133.723 260.89 133.985C260.365 134.28 259.759 134.428 259.07 134.428C258.022 134.428 257.169 134.133 256.514 133.543ZM258.775 131.772C259.038 132.002 259.365 132.117 259.759 132.117C260.349 132.117 260.841 131.92 261.234 131.527C261.627 131.133 261.824 130.494 261.824 129.609V129.117C261.431 129.314 260.857 129.462 260.103 129.56C258.956 129.658 258.382 130.101 258.382 130.887C258.382 131.248 258.513 131.543 258.775 131.772ZM267.478 130.642V125.774H266.2V123.365H267.478V121.054L270.625 120.365V123.365H273.428V125.774H270.625V130.199C270.625 131.248 271.051 131.772 271.904 131.772C272.199 131.772 272.461 131.756 272.69 131.723C272.887 131.658 273.133 131.576 273.428 131.477V134.133C273.002 134.231 272.641 134.313 272.346 134.378C272.018 134.411 271.658 134.428 271.264 134.428C268.74 134.428 267.478 133.166 267.478 130.642ZM275.837 118.694C276.198 118.333 276.64 118.153 277.165 118.153C277.656 118.153 278.082 118.333 278.443 118.694C278.804 119.054 278.984 119.48 278.984 119.972C278.984 120.464 278.804 120.906 278.443 121.299C278.082 121.66 277.656 121.84 277.165 121.84C276.64 121.84 276.198 121.66 275.837 121.299C275.476 120.906 275.296 120.464 275.296 119.972C275.296 119.48 275.476 119.054 275.837 118.694ZM275.591 123.365H278.738V134.133H275.591V123.365ZM284.491 129.019V134.133H281.344V118.792H284.491V127.249L288.08 123.365H292.063L287.638 128.085L292.21 134.133H288.326L284.491 129.019ZM295.455 133.739C294.57 133.248 293.882 132.576 293.39 131.723C292.931 130.871 292.702 129.888 292.702 128.773C292.702 127.659 292.931 126.659 293.39 125.774C293.882 124.922 294.554 124.25 295.406 123.758C296.291 123.266 297.357 123.02 298.602 123.02C299.815 123.02 300.864 123.266 301.749 123.758C302.667 124.25 303.355 124.938 303.814 125.823C304.273 126.675 304.502 127.675 304.502 128.822C304.502 129.937 304.273 130.904 303.814 131.723C303.355 132.576 302.683 133.248 301.798 133.739C300.913 134.198 299.848 134.428 298.602 134.428C297.389 134.428 296.34 134.198 295.455 133.739ZM296.635 130.986C297.127 131.543 297.783 131.822 298.602 131.822C299.454 131.822 300.11 131.543 300.569 130.986C301.028 130.461 301.257 129.74 301.257 128.822C301.257 127.839 301.028 127.069 300.569 126.511C300.077 125.954 299.422 125.676 298.602 125.676C297.75 125.676 297.094 125.954 296.635 126.511C296.177 127.036 295.947 127.79 295.947 128.773C295.947 129.724 296.177 130.461 296.635 130.986ZM165.994 90.864H175.434V93.765H169.337V97.3543H175.238V100.157H169.337V105.762H165.994V90.864Z" fill="#58595B"/>
<path fill-rule="evenodd" clip-rule="evenodd" d="M177.942 105.221C177.286 104.598 176.959 103.779 176.959 102.763C176.959 100.829 178.27 99.698 180.892 99.3702C181.548 99.3046 182.039 99.2391 182.367 99.1735C182.695 99.0752 182.924 98.9768 183.055 98.8785C183.154 98.7802 183.203 98.6491 183.203 98.4852C183.203 98.1246 183.039 97.846 182.711 97.6493C182.351 97.4198 181.826 97.3051 181.138 97.3051C179.958 97.3051 178.761 97.7148 177.549 98.5343V95.8792C178.073 95.5514 178.679 95.2728 179.368 95.0433C180.023 94.8139 180.745 94.6992 181.531 94.6992C183.105 94.6992 184.285 95.0925 185.071 95.8792C185.825 96.6659 186.202 97.764 186.202 99.1735V105.811H183.646L183.596 104.435C183.269 104.992 182.842 105.402 182.318 105.664C181.793 105.959 181.187 106.106 180.499 106.106C179.45 106.106 178.597 105.811 177.942 105.221ZM180.204 103.451C180.433 103.713 180.761 103.845 181.187 103.845C181.777 103.845 182.269 103.631 182.662 103.205C183.055 102.812 183.252 102.173 183.252 101.288V100.796C182.859 100.993 182.285 101.14 181.531 101.239C180.384 101.337 179.81 101.779 179.81 102.566C179.81 102.927 179.941 103.222 180.204 103.451ZM191.808 100.698V105.811H188.661V90.4706H191.808V98.9277L195.397 95.0433H199.33L194.905 99.8127L199.478 105.811H195.643L191.808 100.698ZM201.69 104.975C201.035 104.221 200.707 103.107 200.707 101.632V95.0433H203.854V101.239C203.854 102.681 204.428 103.402 205.575 103.402C206.198 103.402 206.673 103.222 207.001 102.861C207.361 102.468 207.542 101.943 207.542 101.288V95.0433H210.639V105.811H207.738V104.336C207.378 104.893 206.935 105.336 206.411 105.664C205.886 105.959 205.28 106.106 204.591 106.106C203.313 106.106 202.346 105.729 201.69 104.975ZM213.294 90.4706H216.441V105.811H213.294V90.4706ZM219.342 102.32V97.5018H218.064V95.0433H219.342V92.7816L222.489 92.044V95.0433H225.291V97.5018H222.489V101.878C222.489 102.927 222.915 103.451 223.767 103.451C224.062 103.451 224.308 103.435 224.505 103.402C224.734 103.336 224.996 103.255 225.291 103.156V105.811C224.865 105.942 224.488 106.024 224.161 106.057C223.866 106.123 223.505 106.155 223.079 106.155C220.588 106.155 219.342 104.877 219.342 102.32ZM228.045 104.582C227.029 103.566 226.521 102.189 226.521 100.452C226.521 99.3374 226.734 98.354 227.16 97.5018C227.619 96.6167 228.258 95.9284 229.077 95.4367C229.897 94.9778 230.831 94.7483 231.88 94.7483C233.585 94.7483 234.847 95.24 235.666 96.2234C236.486 97.2395 236.895 98.6326 236.895 100.403V101.337H229.766C229.864 102.091 230.159 102.648 230.651 103.009C231.11 103.336 231.798 103.5 232.716 103.5C233.994 103.5 235.191 103.287 236.305 102.861V105.516C235.715 105.713 235.142 105.877 234.584 106.008C233.994 106.106 233.322 106.155 232.568 106.155C230.602 106.155 229.094 105.631 228.045 104.582ZM233.798 99.1735C233.699 98.5179 233.503 98.0426 233.208 97.7476C232.913 97.4198 232.47 97.2559 231.88 97.2559C230.766 97.2559 230.077 97.8951 229.815 99.1735H233.798ZM239.452 102.32V97.5018H238.125V95.0433H239.452V92.7816L242.55 92.044V95.0433H245.352V97.5018H242.55V101.878C242.55 102.927 242.976 103.451 243.828 103.451C244.123 103.451 244.385 103.435 244.615 103.402C244.812 103.336 245.057 103.255 245.352 103.156V105.811C244.926 105.942 244.566 106.024 244.271 106.057C243.943 106.123 243.582 106.155 243.189 106.155C240.698 106.155 239.452 104.877 239.452 102.32ZM247.958 105.221C247.303 104.598 246.975 103.779 246.975 102.763C246.975 100.829 248.286 99.7144 250.908 99.4193C251.564 99.321 252.056 99.2391 252.383 99.1735C252.711 99.1079 252.924 99.026 253.023 98.9277C253.154 98.8293 253.219 98.6818 253.219 98.4852C253.219 98.1574 253.039 97.8787 252.678 97.6493C252.351 97.4198 251.843 97.3051 251.154 97.3051C249.974 97.3051 248.778 97.7312 247.565 98.5835V95.8792C248.089 95.5514 248.679 95.2728 249.335 95.0433C250.023 94.8467 250.761 94.7483 251.548 94.7483C253.088 94.7483 254.252 95.1253 255.039 95.8792C255.825 96.6659 256.219 97.764 256.219 99.1735V105.811H253.662L253.564 104.435C253.269 104.992 252.859 105.418 252.334 105.713C251.81 106.008 251.203 106.155 250.515 106.155C249.466 106.155 248.614 105.844 247.958 105.221ZM250.22 103.451C250.45 103.713 250.777 103.845 251.203 103.845C251.793 103.845 252.285 103.631 252.678 103.205C253.039 102.812 253.219 102.173 253.219 101.288V100.796C252.859 101.026 252.302 101.173 251.548 101.239C250.4 101.337 249.827 101.779 249.827 102.566C249.827 102.927 249.958 103.222 250.22 103.451ZM262.414 104.238L266.937 97.5509H262.561V95.0433H270.969V96.6167L266.495 103.304H271.264V105.811H262.414V104.238ZM273.575 105.221C272.92 104.598 272.592 103.795 272.592 102.812C272.592 100.845 273.919 99.7144 276.575 99.4193C277.197 99.321 277.673 99.2391 278 99.1735C278.328 99.1079 278.558 99.026 278.689 98.9277C278.82 98.8293 278.885 98.6818 278.885 98.4852C278.885 98.1574 278.705 97.8787 278.345 97.6493C277.984 97.4198 277.476 97.3051 276.82 97.3051C275.64 97.3051 274.428 97.7312 273.182 98.5835V95.9284C273.706 95.5678 274.313 95.2728 275.001 95.0433C275.657 94.8467 276.378 94.7483 277.165 94.7483C278.738 94.7483 279.918 95.1417 280.705 95.9284C281.491 96.6823 281.885 97.764 281.885 99.1735V105.811H279.328L279.23 104.435C278.902 104.992 278.492 105.418 278 105.713C277.476 106.008 276.87 106.155 276.181 106.155C275.099 106.155 274.231 105.844 273.575 105.221ZM275.837 103.451C276.099 103.713 276.427 103.845 276.82 103.845C277.41 103.845 277.902 103.631 278.295 103.205C278.689 102.812 278.885 102.173 278.885 101.288V100.796C278.492 101.026 277.935 101.173 277.214 101.239C276.066 101.337 275.493 101.779 275.493 102.566C275.493 102.927 275.608 103.222 275.837 103.451ZM288.818 95.0433H291.719V96.9609C292.014 96.3381 292.407 95.8628 292.899 95.535C293.39 95.1745 293.948 94.9942 294.57 94.9942C294.865 94.9942 295.144 95.0269 295.406 95.0925V98.0918C295.046 97.9934 294.669 97.9443 294.275 97.9443C293.587 97.9443 293.03 98.141 292.604 98.5343C292.145 98.9277 291.915 99.5013 291.915 100.255V105.811H288.818V95.0433ZM297.324 105.221C296.668 104.598 296.34 103.795 296.34 102.812C296.34 100.845 297.668 99.7144 300.323 99.4193C300.946 99.321 301.421 99.2391 301.749 99.1735C302.077 99.1079 302.306 99.026 302.437 98.9277C302.568 98.8293 302.634 98.6818 302.634 98.4852C302.634 98.1574 302.454 97.8787 302.093 97.6493C301.733 97.4198 301.208 97.3051 300.52 97.3051C299.34 97.3051 298.143 97.7312 296.93 98.5835V95.8792C297.455 95.5514 298.061 95.2728 298.75 95.0433C299.405 94.8467 300.126 94.7483 300.913 94.7483C302.487 94.7483 303.667 95.1253 304.453 95.8792C305.24 96.6659 305.633 97.764 305.633 99.1735V105.811H303.077L302.978 104.435C302.65 104.992 302.241 105.418 301.749 105.713C301.225 106.008 300.602 106.155 299.881 106.155C298.832 106.155 297.979 105.844 297.324 105.221ZM299.586 103.451C299.848 103.713 300.176 103.845 300.569 103.845C301.159 103.845 301.651 103.631 302.044 103.205C302.437 102.812 302.634 102.173 302.634 101.288V100.796C302.241 101.026 301.683 101.173 300.962 101.239C299.815 101.337 299.241 101.779 299.241 102.566C299.241 102.927 299.356 103.222 299.586 103.451ZM310.304 105.418C309.419 104.959 308.747 104.303 308.288 103.451C307.797 102.599 307.551 101.599 307.551 100.452C307.551 99.3374 307.797 98.3376 308.288 97.4526C308.813 96.6003 309.518 95.9284 310.403 95.4367C311.288 94.9778 312.271 94.7483 313.353 94.7483C314.041 94.7483 314.631 94.7975 315.123 94.8958C315.647 95.0269 316.139 95.24 316.598 95.535V98.3376C315.713 97.7476 314.795 97.4526 313.845 97.4526C312.927 97.4526 312.189 97.7148 311.632 98.2393C311.075 98.7966 310.796 99.5341 310.796 100.452C310.796 101.403 311.075 102.156 311.632 102.714C312.156 103.238 312.894 103.5 313.845 103.5C314.369 103.5 314.844 103.451 315.27 103.353C315.697 103.255 316.155 103.058 316.647 102.763V105.516C316.188 105.746 315.713 105.91 315.221 106.008C314.697 106.106 314.074 106.155 313.353 106.155C312.206 106.155 311.189 105.91 310.304 105.418ZM308.731 89.6348H311.583L313.402 91.6507L315.221 89.6348H318.073L314.385 93.5683H312.369L308.731 89.6348ZM319.499 104.975C318.843 104.221 318.516 103.091 318.516 101.583V94.9942H321.613V101.189C321.613 102.665 322.187 103.402 323.334 103.402C323.99 103.402 324.481 103.205 324.809 102.812C325.137 102.419 325.301 101.894 325.301 101.239V94.9942H328.448V105.762H325.547V104.336C325.186 104.893 324.744 105.32 324.219 105.615C323.695 105.942 323.088 106.106 322.4 106.106C321.122 106.106 320.155 105.729 319.499 104.975ZM331.103 94.9942H334.004V96.5676C334.364 95.9448 334.823 95.4859 335.38 95.1908C335.905 94.863 336.528 94.6992 337.249 94.6992C338.56 94.6992 339.56 95.0761 340.248 95.83C340.904 96.584 341.232 97.6984 341.232 99.1735V105.762H338.134V99.616C338.101 98.141 337.478 97.4034 336.265 97.4034C335.643 97.4034 335.151 97.6001 334.79 97.9935C334.43 98.3868 334.25 98.9113 334.25 99.5668V105.762H331.103V94.9942ZM344.132 105.172C343.444 104.582 343.1 103.779 343.1 102.763C343.1 100.796 344.428 99.6652 347.083 99.3702C347.738 99.3046 348.23 99.2227 348.558 99.1243C348.853 99.0588 349.066 98.9768 349.197 98.8785C349.328 98.7802 349.394 98.6326 349.394 98.436C349.394 98.1082 349.213 97.8296 348.853 97.6001C348.525 97.3706 348.017 97.2559 347.328 97.2559C346.148 97.2559 344.952 97.6821 343.739 98.5343V95.8792C344.264 95.5186 344.854 95.24 345.509 95.0433C346.198 94.8139 346.935 94.6992 347.722 94.6992C349.262 94.6992 350.426 95.0925 351.213 95.8792C352 96.6659 352.393 97.764 352.393 99.1735V105.762H349.836L349.738 104.435C349.443 104.959 349.033 105.369 348.509 105.664C347.984 105.959 347.378 106.106 346.689 106.106C345.64 106.106 344.788 105.795 344.132 105.172ZM346.394 103.451C346.624 103.681 346.952 103.795 347.378 103.795C347.935 103.795 348.41 103.599 348.804 103.205C349.197 102.779 349.394 102.124 349.394 101.239V100.747C349.033 100.976 348.476 101.124 347.722 101.189C346.575 101.288 346.001 101.73 346.001 102.517C346.001 102.878 346.132 103.189 346.394 103.451ZM354.802 90.4215H357.949V105.762H354.802V90.4215ZM360.604 95.0433H363.505V96.5676C363.866 95.9775 364.325 95.5186 364.882 95.1908C365.439 94.863 366.062 94.6992 366.75 94.6992C368.094 94.6992 369.094 95.0761 369.749 95.83C370.405 96.584 370.733 97.7148 370.733 99.2227V105.811H367.635V99.616C367.635 98.141 367.012 97.4034 365.767 97.4034C365.144 97.4034 364.652 97.6001 364.292 97.9935C363.931 98.3868 363.751 98.9113 363.751 99.5668V105.811H360.604V95.0433ZM373.437 90.3723C373.798 89.979 374.24 89.7823 374.765 89.7823C375.256 89.7823 375.682 89.979 376.043 90.3723C376.404 90.7329 376.584 91.159 376.584 91.6507C376.584 92.1424 376.404 92.5685 376.043 92.9291C375.682 93.3224 375.256 93.5191 374.765 93.5191C374.24 93.5191 373.798 93.3224 373.437 92.9291C373.077 92.5685 372.896 92.1424 372.896 91.6507C372.896 91.159 373.077 90.7329 373.437 90.3723ZM373.191 95.0433H376.289V105.762H373.191V95.0433ZM377.862 89.6839H380.714L382.533 91.6998L384.353 89.6839H387.204L383.517 93.5683H381.501L377.862 89.6839ZM380.272 105.91C379.616 105.746 379.042 105.5 378.551 105.172V102.468C379.075 102.861 379.632 103.173 380.222 103.402C380.845 103.599 381.419 103.697 381.943 103.697C382.959 103.697 383.468 103.418 383.468 102.861C383.468 102.566 383.369 102.353 383.173 102.222C382.976 102.058 382.583 101.878 381.992 101.681L380.862 101.337C380.075 101.075 379.468 100.698 379.042 100.206C378.649 99.7144 378.452 99.0752 378.452 98.2885C378.452 97.6329 378.616 97.0429 378.944 96.5184C379.239 95.9612 379.714 95.535 380.37 95.24C380.993 94.9122 381.747 94.7483 382.632 94.7483C383.812 94.7483 384.861 95.0269 385.779 95.5842V98.3868C385.287 98.0262 384.795 97.764 384.303 97.6001C383.812 97.4034 383.287 97.3051 382.73 97.3051C382.337 97.3051 382.009 97.387 381.747 97.5509C381.517 97.7148 381.402 97.9279 381.402 98.1901C381.402 98.4524 381.484 98.6654 381.648 98.8293C381.779 98.9604 382.025 99.0752 382.386 99.1735L383.615 99.5177C384.631 99.8127 385.369 100.222 385.828 100.747C386.287 101.271 386.516 101.96 386.516 102.812C386.516 103.795 386.139 104.598 385.385 105.221C384.631 105.844 383.582 106.155 382.238 106.155C381.616 106.155 380.96 106.074 380.272 105.91ZM388.827 102.369V97.5018H387.549V95.0925H388.827V92.7816L391.974 92.0932V95.0925H394.776V97.5018H391.974V101.927C391.974 102.976 392.4 103.5 393.252 103.5C393.514 103.5 393.76 103.484 393.99 103.451C394.219 103.386 394.481 103.304 394.776 103.205V105.86C394.35 105.959 393.973 106.041 393.646 106.106C393.318 106.139 392.957 106.155 392.564 106.155C390.073 106.155 388.827 104.893 388.827 102.369ZM395.711 95.0925H399.3L401.66 101.386L404.069 95.0925H407.659L402.545 106.106H400.824L395.711 95.0925ZM410.904 105.418C410.019 104.959 409.347 104.303 408.888 103.451C408.429 102.566 408.199 101.583 408.199 100.501C408.199 99.3538 408.429 98.354 408.888 97.5018C409.347 96.6167 410.019 95.9448 410.904 95.4858C411.789 94.9942 412.838 94.7483 414.051 94.7483C415.296 94.7483 416.362 94.9942 417.247 95.4858C418.132 95.9775 418.82 96.6495 419.312 97.5018C419.771 98.3868 420 99.403 420 100.55C420 101.632 419.771 102.599 419.312 103.451C418.82 104.303 418.132 104.959 417.247 105.418C416.394 105.91 415.345 106.155 414.1 106.155C412.887 106.155 411.822 105.91 410.904 105.418ZM412.133 102.714C412.625 103.271 413.28 103.55 414.1 103.55C414.919 103.55 415.575 103.271 416.066 102.714C416.525 102.189 416.755 101.468 416.755 100.55C416.755 99.5668 416.525 98.7802 416.066 98.1901C415.575 97.6329 414.903 97.3543 414.051 97.3543C413.231 97.3543 412.592 97.6329 412.133 98.1901C411.674 98.7474 411.445 99.5177 411.445 100.501C411.445 101.452 411.674 102.189 412.133 102.714ZM165.945 19.3234H193.332V27.7312H175.68V38.155H192.791V46.317H175.68V62.5919H165.945V19.3234Z" fill="#58595B"/>
<path fill-rule="evenodd" clip-rule="evenodd" d="M200.461 19.3234H215.556C221.03 19.3234 225.341 20.6017 228.488 23.1585C231.602 25.6825 233.159 29.1735 233.159 33.6315C233.159 36.6799 232.405 39.3023 230.897 41.4985C229.389 43.7275 227.226 45.3992 224.407 46.5137L226.029 48.6771C227.734 50.9389 229.159 52.4631 230.307 53.2498C231.421 54.0038 232.536 54.3807 233.65 54.3807V63.4278C233.322 63.4605 232.847 63.477 232.224 63.477C229.995 63.477 227.93 62.9361 226.029 61.8544C224.161 60.8055 222.112 58.8387 219.883 55.9541L213.688 47.9888H210.197V62.5427H200.461V19.3234ZM215.31 40.1218C217.801 40.1218 219.686 39.5973 220.965 38.5484C222.243 37.4666 222.882 35.926 222.882 33.9265C222.882 31.8942 222.243 30.3536 220.965 29.3046C219.686 28.2557 217.801 27.7312 215.31 27.7312H210.197V40.1218H215.31ZM241.911 19.3234H251.597V62.5919H241.911V19.3234ZM121.693 105.811H109.991V103.943L117.071 93.7158H110.187V90.9131H121.447V92.7816L114.367 103.009H121.693V105.811ZM25.7645 106.106C21.2902 106.106 19.2251 103.55 19.2251 99.5177V90.864H22.5685V99.4685C22.5685 101.976 23.7486 103.009 25.7645 103.009C28.0754 103.009 28.9605 101.484 28.9605 99.4685V90.864H32.3531V99.5177C32.3531 104.09 29.7964 106.106 25.7645 106.106ZM90.5199 105.811H80.2927V90.864H90.4215V93.7158H83.6362V96.6167H89.7823V99.4685H83.6362V102.96H90.5199V105.811ZM48.4313 105.811L40.2201 97.0101V105.811H36.975V90.9131H38.8434L47.0054 99.5668V90.9131H50.2997V105.811H48.4313Z" fill="#58595B"/>
<path fill-rule="evenodd" clip-rule="evenodd" d="M98.1901 105.811H94.945V90.864H100.059C103.894 90.864 106.254 92.7324 106.254 95.7317C106.254 97.9935 104.877 99.4686 103.156 100.206L103.746 101.042C104.779 102.468 105.467 103.107 106.352 103.107V106.106C104.189 106.156 103.058 105.516 101.583 103.5L99.4194 100.649H98.1901V105.811ZM98.1901 97.9935H100.009C101.878 97.9935 102.763 97.2559 102.763 95.8301C102.763 94.5025 101.878 93.7158 100.009 93.7158H98.1901V97.9935ZM55.1183 90.9132H58.4617V105.861H55.1183V90.9132ZM73.3599 90.9132H77.195L70.5573 105.811H68.2463L61.6085 90.9132H65.4437L69.4264 100.649L73.3599 90.9132ZM130.396 90.9132H132.952L139.443 105.861H135.608L134.624 103.255H128.675L127.691 105.861H123.856L130.396 90.9132ZM133.592 100.501L131.674 95.3875L129.707 100.501H133.592ZM32.8448 119.234H40.2201V132.756C40.2201 135.067 40.0726 136.984 39.2367 138.656H35.7457C36.6799 137.083 36.8766 134.673 36.8766 132.953V122.086H32.8448V119.234ZM26.5512 131.33H32.8448V134.133H23.2077V119.234H26.5512V131.33ZM11.653 119.234H15.439L8.89957 134.133H6.58863L0 119.234H3.88435L7.76867 129.019L11.653 119.234ZM81.3252 131.33H87.5697V134.133H77.9818V119.234H81.3252V131.33ZM126.905 119.234H130.199V134.133H128.331L120.119 125.331V134.133H116.825V119.234H118.694L126.905 127.888V119.234ZM134.968 119.234H138.312V134.133H134.968V119.234ZM54.6266 119.234H57.97V127.888C57.97 132.461 55.4133 134.477 51.3814 134.477C46.9071 134.477 44.842 131.92 44.842 127.888V119.234H48.1854V127.839C48.1854 130.347 49.4147 131.428 51.3814 131.428C53.7415 131.428 54.6266 129.855 54.6266 127.839V119.234ZM87.5697 119.234H94.945V132.707C94.945 135.018 94.7975 136.984 94.0108 138.607H90.4707C91.454 137.034 91.6015 134.673 91.6015 132.953V122.086H87.5697V119.234Z" fill="#58595B"/>
<path fill-rule="evenodd" clip-rule="evenodd" d="M73.9991 129.953C73.9991 133.002 71.8849 134.133 68.5414 134.133H62.6411V119.234H67.9514C71.2457 119.234 73.1141 120.464 73.1141 123.02C73.1141 124.643 72.3766 125.577 71.2948 126.118C73.1141 126.659 73.9991 128.085 73.9991 129.953ZM66.083 125.282H67.4105C68.9348 125.282 69.6723 124.741 69.6723 123.561C69.6723 122.43 68.9348 121.889 67.4105 121.889H66.083V125.282ZM70.459 129.707C70.459 128.527 69.7214 127.888 68.0989 127.888H66.083V131.428H68.0989C69.7214 131.428 70.459 130.838 70.459 129.707ZM104.73 119.234H107.237L113.728 134.182H109.892L108.958 131.576H102.96L101.976 134.182H98.141L104.73 119.234ZM107.926 128.822L106.008 123.709L104.041 128.822H107.926ZM152.571 153.358H151.243V0.0491638H152.571V153.358Z" fill="#58595B"/>
<path d="M136.394 59.2484H138.361V56.2983H136.394V59.2484ZM133.592 50.2014H131.576V54.3315H133.592V50.2014ZM136.394 54.2824H138.361V50.2014H136.394V54.2824ZM131.576 48.1854H138.361V46.8579H131.576V48.1854ZM131.576 62.4936H138.361V61.166H131.576V62.4936ZM131.576 59.1993H133.592V56.2491H131.576V59.1993ZM136.394 38.7942H138.361V34.7132H136.394V38.7942ZM131.576 32.6973H138.361V31.3697H131.576V32.6973ZM131.576 44.842H133.592V41.7443C133.592 41.2035 133.149 40.761 132.559 40.761C132.018 40.761 131.576 41.2035 131.576 41.7443V44.842ZM128.282 20.5034H138.361V19.1758H128.282V20.5034ZM137.378 40.761C136.837 40.761 136.394 41.1543 136.394 41.7443V44.842H138.361V41.7443C138.361 41.1543 137.919 40.761 137.378 40.761ZM133.592 34.664H131.576V38.7451H133.592V34.664ZM93.2733 44.8912H95.2401V41.7443C95.2401 41.2035 94.7976 40.761 94.2567 40.761C93.6667 40.761 93.2733 41.2035 93.2733 41.7443V44.8912ZM90.4215 34.7132H88.4548V38.7942H90.4215V34.7132ZM119.185 12.5872V13.2756V13.4723H120.513V12.5872C120.513 11.5547 119.825 10.6697 118.841 10.3746V0H117.563V11.6039H118.202C118.743 11.6039 119.185 12.0464 119.185 12.5872ZM102.812 38.8434H104.828V34.7132H102.812V38.8434ZM88.4548 44.9403H90.4215V41.7935C90.4215 41.2526 89.979 40.8593 89.4382 40.8593C88.8973 40.8593 88.4548 41.2526 88.4548 41.7935V44.9403ZM88.4548 59.2976H90.4215V56.2983H88.4548V59.2976ZM103.845 40.9085C103.255 40.9085 102.812 41.3018 102.812 41.8918V44.9895H104.828V41.8918C104.828 41.3018 104.385 40.9085 103.845 40.9085ZM100.009 34.8115H98.0427V38.8926H100.009V34.8115ZM95.2401 34.8115H93.2733V38.9417H95.2401V34.8115ZM98.0427 44.9895H100.009V41.8918C100.009 41.3018 99.5669 40.9085 99.0261 40.9085C98.4852 40.9085 98.0427 41.3018 98.0427 41.8918V44.9895ZM86.488 34.7624H85.1605V62.5919H104.828V61.2644H86.488V48.2346H104.828V46.9562H86.488V34.7624ZM90.4215 50.2014H88.4548V54.2824H90.4215V50.2014ZM113.138 16.6682H123.266L124.84 22.6177H126.216L124.25 15.3407H112.105L110.187 22.6177H111.564L113.138 16.6682ZM102.812 54.3315H104.779V50.2505H102.812V54.3315ZM111.81 53.1515V63.772H113.138V53.1515C113.138 51.5289 111.761 50.2014 110.138 50.2014H110.089V51.5289C110.138 51.5289 110.089 51.5289 110.138 51.5289C111.072 51.5289 111.81 52.2665 111.81 53.1515ZM102.812 59.2484H104.779V56.2983H102.812V59.2484ZM93.2242 59.2484H95.1909V56.2491H93.2242V59.2484ZM95.1909 50.2014H93.2242V54.3315H95.1909V50.2014ZM98.0427 59.2484H100.009V56.2983H98.0427V59.2484ZM100.009 50.1522H98.0427V54.2824H100.009V50.1522ZM123.168 44.8912H125.135V41.7443C125.135 41.2035 124.692 40.761 124.151 40.761C123.561 40.761 123.168 41.2035 123.168 41.7443V44.8912ZM89.7824 20.5526H108.122V19.2742H88.799L85.1605 32.7464H104.779V31.4189H86.8814L89.7824 20.5526ZM128.232 63.2311L129.56 62.4936V25.1744H128.232V63.2311ZM123.217 53.1023V63.7228H124.545V53.1023C124.545 52.2173 125.282 51.4798 126.216 51.4798C126.266 51.4798 126.216 51.4798 126.266 51.4798V50.1522H126.216C124.545 50.1522 123.217 51.4798 123.217 53.1023Z" fill="#E03128"/>
<path fill-rule="evenodd" clip-rule="evenodd" d="M120.513 46.9562H126.315V48.2346H110.089V46.9562H115.891V43.121C115.891 41.8918 116.924 40.8593 118.202 40.8593C119.48 40.8593 120.513 41.8918 120.513 43.121V46.9562ZM119.185 43.1702C119.185 42.6785 118.743 42.1869 118.202 42.1869C117.661 42.1869 117.219 42.6785 117.219 43.1702V46.9562H119.185V43.1702ZM122.824 27.5837H126.315V28.9113H121.496V26.0595L118.202 24.1911L114.908 26.0595V28.9113H110.089V27.5837H113.58V25.3219L118.153 22.6176L118.202 22.6668L122.824 25.3219V27.5837ZM111.269 41.8918C111.269 41.351 111.712 40.9085 112.252 40.9085C112.793 40.9085 113.236 41.351 113.236 41.8918V45.0386H111.269V41.8918ZM119.874 63.8211V53.2007C119.874 52.3156 119.087 51.5781 118.202 51.5781C117.268 51.5781 116.53 52.3156 116.53 53.2007V63.8211H115.203V53.2007C115.203 51.5781 116.579 50.2505 118.202 50.2505C119.824 50.2505 121.201 51.5781 121.201 53.2007V63.8211H119.874ZM106.795 25.2728H108.122V63.3294L106.795 62.5919V25.2728ZM118.202 29.1079C117.464 29.1079 116.874 28.5179 116.874 27.7804C116.874 27.0428 117.464 26.4037 118.202 26.4037C118.939 26.4037 119.53 27.0428 119.53 27.7804C119.53 28.5179 118.939 29.1079 118.202 29.1079ZM113.236 38.9417H111.269V34.8115H113.236V38.9417ZM121.988 31.5664H126.315V32.8939H121.496C120.66 32.0581 119.53 31.5664 118.251 31.5664C116.973 31.5664 115.793 32.0581 114.957 32.8939H110.089V31.5664H114.465C115.498 30.7305 116.776 30.2388 118.251 30.2388C119.628 30.2388 120.955 30.7305 121.988 31.5664ZM119.185 38.9417V35.8441C119.185 35.254 118.743 34.8607 118.202 34.8607C117.661 34.8607 117.219 35.254 117.219 35.8441V38.9417H115.891V35.8441C115.891 34.5657 116.924 33.5331 118.202 33.5331C119.48 33.5331 120.513 34.5657 120.513 35.8441V38.9417H119.185ZM125.135 38.9417H123.168V34.8607H125.135V38.9417ZM124.545 65.7879L126.266 64.8045V66.3287L124.889 67.1154H111.466L110.089 66.3287V64.8045L111.81 65.7879H124.545Z" fill="#E03128"/>
</svg>
