<?xml version="1.0" encoding="utf-8"?>
<!-- Generator: Adobe Illustrator 28.1.0, SVG Export Plug-In . SVG Version: 6.00 Build 0)  -->
<svg version="1.1" id="Layer_1" xmlns="http://www.w3.org/2000/svg" xmlns:xlink="http://www.w3.org/1999/xlink" x="0px" y="0px"
	 viewBox="0 0 841.89 595.28" style="enable-background:new 0 0 841.89 595.28;" xml:space="preserve">
<style type="text/css">
	.st0{fill:#FF5100;}
</style>
<path class="st0" d="M265.6,269.33v39.78c0,12.91,7.06,17.19,13.45,17.19h36.74v-14.25h-28.63v-9.25h28.97v-11.59l-28.97-0.33v-7.97
	h28.63v-13.58H265.6z"/>
<path class="st0" d="M319.21,282.95v-13.67h90.69c15.52,0.33,27.28,16.67,12.83,30c6.73,4.04,7.06,8.02,7.06,13.01v14h-18.21v-14
	c-0.67-3.33-2.02-4.65-6.05-5.98h-13.5v19.98h-20.89v-37.98h20.89v6.65h13.5c5.04-1.66,6.05-9.69,0-12.01h-50.58v43.34H334v-43.34
	H319.21z"/>
<path class="st0" d="M456.78,291.59v13.67c0,4.98,3.7,8.69,8.41,8.69h1.68c5.05,0,8.79-3.7,8.79-8.69v-13.67
	c0-4.99-3.75-8.64-8.79-8.64h-1.68C460.48,282.95,456.78,286.61,456.78,291.59 M456.78,269.33h19.55c11.43,0,20.89,9.25,20.89,20.55
	v15.9c0,11.25-9.46,20.51-20.89,20.51h-19.55c-11.48,0-20.94-9.26-20.94-20.51v-15.9C435.83,278.58,445.29,269.33,456.78,269.33"/>
<path class="st0" d="M504.95,326.25v-56.97h15.51c10.47,0,12.83,6.32,16.19,11.35l13.5,18.99v-30.34h20.9v56.97h-16.86
	c-10.42,0-14.84-6.65-18.21-11.63l-10.09-15.33v26.96H504.95z"/>
<rect x="580.51" y="269.28" class="st0" width="20.56" height="56.97"/>
<path class="st0" d="M610.49,326.25v-56.97h19.93v20.32c0.34,5.7,3.03,8.36,8.07,0.67l12.83-20.99h22.24l-16.19,23.31
	c-2.02,3.04-2.02,5.36-7.4,6.36c5.38,0.66,6.39,3.99,7.06,4.65l15.85,22.64h-21.57l-12.15-18.65c-4.7-7.31-8.4-6.98-8.74-2.33v20.98
	H610.49z"/>
<path class="st0" d="M168.81,326.3v-57.02h20.56c9.8,0,14.51,4.32,16.19,9.31l7.11,20.55l8.07-20.22c2.35-5.98,9.8-9.64,16.19-9.64
	h21.57v57.02h-21.57v-37.79l-16.19,37.79h-15.85l-15.51-33.47v33.47H168.81z"/>
</svg>
