<svg width="585" height="185" viewBox="0 0 585 185" fill="none" xmlns="http://www.w3.org/2000/svg">
<mask id="mask0_1360_723" style="mask-type:luminance" maskUnits="userSpaceOnUse" x="48" y="0" width="36" height="52">
<path d="M60.9804 34.14L63.2204 49.98C63.2204 49.98 63.8204 51.82 66.0604 51.82L68.9004 49.98L71.1404 34.14C78.1004 31.96 83.1804 25.54 83.1804 17.88C83.1804 8.42 75.5204 0.76001 66.0604 0.76001C56.6004 0.76001 48.9404 8.42 48.9404 17.88C48.9404 25.56 54.0204 31.98 60.9804 34.14Z" fill="white"/>
</mask>
<g mask="url(#mask0_1360_723)">
<path d="M-9.94922 -9.28003H142.351V143.12H-9.94922V-9.28003Z" fill="#70C72D"/>
</g>
<mask id="mask1_1360_723" style="mask-type:luminance" maskUnits="userSpaceOnUse" x="49" y="82" width="35" height="52">
<path d="M71.3401 99.7601L69.1001 83.92C69.1001 83.92 68.5001 82.0801 66.2601 82.0801L63.4001 83.92L61.1601 99.7601C54.2001 101.94 49.1201 108.36 49.1201 116.02C49.1201 125.48 56.7801 133.14 66.2401 133.14C75.7001 133.14 83.3601 125.48 83.3601 116.02C83.3601 108.34 78.2801 101.92 71.3201 99.7601" fill="white"/>
</mask>
<g mask="url(#mask1_1360_723)">
<path d="M-9.9502 -9.28003H142.35V143.12H-9.9502V-9.28003Z" fill="#70C72D"/>
</g>
<mask id="mask2_1360_723" style="mask-type:luminance" maskUnits="userSpaceOnUse" x="14" y="15" width="43" height="43">
<path d="M39.3198 47.4199L52.0998 57.0399C52.0998 57.0399 53.8198 57.9199 55.4198 56.3399L56.1398 53.0199L46.5198 40.2399C49.8998 33.7799 48.9598 25.6399 43.5398 20.2199C36.8598 13.5199 26.0198 13.5399 19.3398 20.2199C12.6598 26.8999 12.6398 37.7399 19.3398 44.4399C24.7598 49.8599 32.8798 50.7999 39.3398 47.4199" fill="white"/>
</mask>
<g mask="url(#mask2_1360_723)">
<path d="M-9.9502 -9.28003H142.35V143.12H-9.9502V-9.28003Z" fill="#70C72D"/>
</g>
<mask id="mask3_1360_723" style="mask-type:luminance" maskUnits="userSpaceOnUse" x="76" y="76" width="42" height="43">
<path d="M92.9997 86.5001L80.2197 76.8801C80.2197 76.8801 78.4997 76.0001 76.8997 77.6001L76.1797 80.9201L85.7997 93.7001C82.4197 100.16 83.3597 108.3 88.7797 113.72C95.4797 120.42 106.3 120.4 112.98 113.72C119.66 107.04 119.68 96.1801 112.98 89.5001C107.56 84.0801 99.4397 83.1401 92.9797 86.5201" fill="white"/>
</mask>
<g mask="url(#mask3_1360_723)">
<path d="M-9.9502 -9.27979H142.35V143.12H-9.9502V-9.27979Z" fill="#70C72D"/>
</g>
<mask id="mask4_1360_723" style="mask-type:luminance" maskUnits="userSpaceOnUse" x="0" y="49" width="52" height="36">
<path d="M33.36 72.14L49.18 69.9C49.18 69.9 51.02 69.3 51.02 67.06L49.18 64.22L33.36 61.98C31.18 55.02 24.78 49.94 17.1 49.94C7.66 49.92 0 57.6 0 67.06C0 76.52 7.66 84.18 17.1 84.18C24.78 84.18 31.18 79.1 33.36 72.14Z" fill="white"/>
</mask>
<g mask="url(#mask4_1360_723)">
<path d="M-9.9502 -9.28003H142.35V143.12H-9.9502V-9.28003Z" fill="#70C72D"/>
</g>
<mask id="mask5_1360_723" style="mask-type:luminance" maskUnits="userSpaceOnUse" x="81" y="49" width="52" height="35">
<path d="M98.9598 61.78L83.1398 64.02C83.1398 64.02 81.2998 64.62 81.2998 66.86L83.1398 69.72L98.9598 71.96C101.14 78.92 107.54 84 115.2 84C124.66 84 132.32 76.32 132.32 66.88C132.32 57.44 124.66 49.74 115.2 49.74C107.52 49.74 101.12 54.82 98.9398 61.78" fill="white"/>
</mask>
<g mask="url(#mask5_1360_723)">
<path d="M-9.9502 -9.28003H142.35V143.12H-9.9502V-9.28003Z" fill="#70C72D"/>
</g>
<mask id="mask6_1360_723" style="mask-type:luminance" maskUnits="userSpaceOnUse" x="14" y="77" width="43" height="42">
<path d="M46.6397 93.82L56.2597 81.04C56.2597 81.04 57.1197 79.3 55.5397 77.72L52.2197 77L39.4397 86.62C32.9797 83.22 24.8597 84.18 19.4397 89.6C12.7597 96.28 12.7597 107.12 19.4397 113.8C26.1197 120.48 36.9597 120.5 43.6397 113.8C49.0597 108.38 49.9997 100.24 46.6197 93.78" fill="white"/>
</mask>
<g mask="url(#mask6_1360_723)">
<path d="M-9.9502 -9.28003H142.35V143.12H-9.9502V-9.28003Z" fill="#70C72D"/>
</g>
<mask id="mask7_1360_723" style="mask-type:luminance" maskUnits="userSpaceOnUse" x="75" y="15" width="43" height="42">
<path d="M85.6797 40.08L76.0597 52.86C76.0597 52.86 75.1997 54.6 76.7597 56.18L80.0797 56.9L92.8397 47.28C99.2997 50.68 107.42 49.72 112.84 44.3C119.52 37.6 119.52 26.76 112.84 20.08C106.16 13.4 95.3197 13.38 88.6397 20.08C83.2197 25.5 82.2797 33.64 85.6597 40.1" fill="white"/>
</mask>
<g mask="url(#mask7_1360_723)">
<path d="M-9.9502 -9.28003H142.35V143.12H-9.9502V-9.28003Z" fill="#70C72D"/>
</g>
<path d="M161.45 55.2199L160.65 57.0199L157.85 56.2199L158.65 53.4199L161.45 54.2199M161.45 55.2199L160.65 57.0199L157.85 56.2199L158.65 53.4199L161.45 54.2199M165.65 55.2199L164.75 57.0199L162.05 56.2199L162.85 53.4199L165.55 54.2199M165.65 55.2199L164.75 57.0199L162.05 56.2199L162.85 53.4199L165.55 54.2199M169.75 55.2199L168.95 57.0199L166.25 56.2199L166.95 53.4199L169.75 54.2199M169.75 55.2199L168.95 57.0199L166.25 56.2199L166.95 53.4199L169.75 54.2199M173.95 55.2199L173.15 57.0199L170.35 56.2199L171.15 53.4199L173.95 54.2199M173.95 55.2199L173.15 57.0199L170.35 56.2199L171.15 53.4199L173.95 54.2199M178.15 55.2199L177.35 57.0199L174.55 56.2199L175.35 53.4199L178.15 54.2199M178.15 55.2199L177.35 57.0199L174.55 56.2199L175.35 53.4199L178.15 54.2199M169.75 59.4199L168.95 61.2199L166.25 60.4199L166.95 57.6199L169.75 58.4199M169.75 59.4199L168.95 61.2199L166.25 60.4199L166.95 57.6199L169.75 58.4199M169.75 63.6199L168.95 65.4199L166.25 64.6199L166.95 61.8199L169.75 62.6199M169.75 63.6199L168.95 65.4199L166.25 64.6199L166.95 61.8199L169.75 62.6199M169.75 67.8199L168.95 69.5199L166.25 68.8199L166.95 66.0199L169.75 66.8199M169.75 67.8199L168.95 69.5199L166.25 68.8199L166.95 66.0199L169.75 66.8199M169.75 72.0199L168.95 73.7199L166.25 72.9199L166.95 70.2199L169.75 71.0199M169.75 72.0199L168.95 73.7199L166.25 72.9199L166.95 70.2199L169.75 71.0199M169.75 76.1199L168.95 77.9199L166.25 77.1199L166.95 74.4199L169.75 75.2199M169.75 76.1199L168.95 77.9199L166.25 77.1199L166.95 74.4199L169.75 75.2199M169.75 80.3199L168.95 82.1199L166.25 81.3199L166.95 78.6199L169.75 79.4199M169.75 80.3199L168.95 82.1199L166.25 81.3199L166.95 78.6199L169.75 79.4199M190.65 55.2199L189.85 57.0199L187.15 56.2199L187.95 53.4199L190.65 54.2199M190.65 55.2199L189.85 57.0199L187.15 56.2199L187.95 53.4199L190.65 54.2199M194.85 55.2199L194.05 57.0199L191.35 56.2199L192.15 53.4199L194.85 54.2199M194.85 55.2199L194.05 57.0199L191.35 56.2199L192.15 53.4199L194.85 54.2199M199.05 55.2199L198.25 57.0199L195.55 56.2199L196.25 53.4199L199.05 54.2199M199.05 55.2199L198.25 57.0199L195.55 56.2199L196.25 53.4199L199.05 54.2199M203.25 55.2199L202.45 57.0199L199.75 56.2199L200.45 53.4199L203.25 54.2199M203.25 55.2199L202.45 57.0199L199.75 56.2199L200.45 53.4199L203.25 54.2199M207.45 55.2199L206.65 57.0199L203.85 56.2199L204.65 53.4199L207.45 54.2199M207.45 55.2199L206.65 57.0199L203.85 56.2199L204.65 53.4199L207.45 54.2199M190.65 59.4199L189.85 61.2199L187.15 60.4199L187.95 57.6199L190.65 58.4199M190.65 59.4199L189.85 61.2199L187.15 60.4199L187.95 57.6199L190.65 58.4199M190.65 63.6199L189.85 65.4199L187.15 64.6199L187.95 61.8199L190.65 62.6199M190.65 63.6199L189.85 65.4199L187.15 64.6199L187.95 61.8199L190.65 62.6199M190.65 67.8199L189.85 69.5199L187.15 68.8199L187.95 66.0199L190.65 66.8199M190.65 67.8199L189.85 69.5199L187.15 68.8199L187.95 66.0199L190.65 66.8199M194.85 67.8199L194.05 69.5199L191.35 68.8199L192.15 66.0199L194.85 66.8199M194.85 67.8199L194.05 69.5199L191.35 68.8199L192.15 66.0199L194.85 66.8199M199.05 67.8199L198.25 69.5199L195.55 68.8199L196.25 66.0199L199.05 66.8199M199.05 67.8199L198.25 69.5199L195.55 68.8199L196.25 66.0199L199.05 66.8199M203.25 67.8199L202.45 69.5199L199.75 68.8199L200.45 66.0199L203.25 66.8199M203.25 67.8199L202.45 69.5199L199.75 68.8199L200.45 66.0199L203.25 66.8199M190.65 72.0199L189.85 73.7199L187.15 72.9199L187.95 70.2199L190.65 71.0199M190.65 72.0199L189.85 73.7199L187.15 72.9199L187.95 70.2199L190.65 71.0199M190.65 76.1199L189.85 77.9199L187.15 77.1199L187.95 74.4199L190.65 75.2199M190.65 76.1199L189.85 77.9199L187.15 77.1199L187.95 74.4199L190.65 75.2199M190.65 80.3199L189.85 82.1199L187.15 81.3199L187.95 78.6199L190.65 79.4199M190.65 80.3199L189.85 82.1199L187.15 81.3199L187.95 78.6199L190.65 79.4199M194.85 80.3199L194.05 82.1199L191.35 81.3199L192.15 78.6199L194.85 79.4199M194.85 80.3199L194.05 82.1199L191.35 81.3199L192.15 78.6199L194.85 79.4199M199.05 80.3199L198.25 82.1199L195.55 81.3199L196.25 78.6199L199.05 79.4199M199.05 80.3199L198.25 82.1199L195.55 81.3199L196.25 78.6199L199.05 79.4199M203.25 80.3199L202.45 82.1199L199.75 81.3199L200.45 78.6199L203.25 79.4199M203.25 80.3199L202.45 82.1199L199.75 81.3199L200.45 78.6199L203.25 79.4199M207.45 80.3199L206.65 82.1199L203.85 81.3199L204.65 78.6199L207.45 79.4199M207.45 80.3199L206.65 82.1199L203.85 81.3199L204.65 78.6199L207.45 79.4199M220.05 55.2199L219.25 57.0199L216.45 56.2199L217.25 53.4199L219.95 54.2199M220.05 55.2199L219.25 57.0199L216.45 56.2199L217.25 53.4199L219.95 54.2199M236.75 55.2199L235.95 57.0199L233.25 56.2199L234.05 53.4199L236.75 54.2199M236.75 55.2199L235.95 57.0199L233.25 56.2199L234.05 53.4199L236.75 54.2199M220.05 59.4199L219.25 61.2199L216.45 60.4199L217.25 57.6199L219.95 58.4199M220.05 59.4199L219.25 61.2199L216.45 60.4199L217.25 57.6199L219.95 58.4199M236.75 59.4199L235.95 61.2199L233.25 60.4199L234.05 57.6199L236.75 58.4199M236.75 59.4199L235.95 61.2199L233.25 60.4199L234.05 57.6199L236.75 58.4199M220.05 63.6199L219.25 65.4199L216.45 64.6199L217.25 61.8199L219.95 62.6199M220.05 63.6199L219.25 65.4199L216.45 64.6199L217.25 61.8199L219.95 62.6199M236.75 63.6199L235.95 65.4199L233.25 64.6199L234.05 61.8199L236.75 62.6199M236.75 63.6199L235.95 65.4199L233.25 64.6199L234.05 61.8199L236.75 62.6199M220.05 67.8199L219.25 69.5199L216.45 68.8199L217.25 66.0199L219.95 66.8199M220.05 67.8199L219.25 69.5199L216.45 68.8199L217.25 66.0199L219.95 66.8199M224.25 67.8199L223.45 69.5199L220.65 68.8199L221.45 66.0199L224.15 66.8199M224.25 67.8199L223.45 69.5199L220.65 68.8199L221.45 66.0199L224.15 66.8199M228.35 67.8199L227.55 69.5199L224.85 68.8199L225.65 66.0199L228.35 66.8199M228.35 67.8199L227.55 69.5199L224.85 68.8199L225.65 66.0199L228.35 66.8199M232.55 67.8199L231.75 69.5199L229.05 68.8199L229.85 66.0199L232.55 66.8199M232.55 67.8199L231.75 69.5199L229.05 68.8199L229.85 66.0199L232.55 66.8199M236.75 67.8199L235.95 69.5199L233.25 68.8199L234.05 66.0199L236.75 66.8199M236.75 67.8199L235.95 69.5199L233.25 68.8199L234.05 66.0199L236.75 66.8199M220.05 72.0199L219.25 73.7199L216.45 72.9199L217.25 70.2199L219.95 71.0199M220.05 72.0199L219.25 73.7199L216.45 72.9199L217.25 70.2199L219.95 71.0199M236.75 72.0199L235.95 73.7199L233.25 72.9199L234.05 70.2199L236.75 71.0199M236.75 72.0199L235.95 73.7199L233.25 72.9199L234.05 70.2199L236.75 71.0199M220.05 76.1199L219.25 77.9199L216.45 77.1199L217.25 74.4199L219.95 75.2199M220.05 76.1199L219.25 77.9199L216.45 77.1199L217.25 74.4199L219.95 75.2199M236.75 76.1199L235.95 77.9199L233.25 77.1199L234.05 74.4199L236.75 75.2199M236.75 76.1199L235.95 77.9199L233.25 77.1199L234.05 74.4199L236.75 75.2199M220.05 80.3199L219.25 82.1199L216.45 81.3199L217.25 78.6199L219.95 79.4199M220.05 80.3199L219.25 82.1199L216.45 81.3199L217.25 78.6199L219.95 79.4199M236.75 80.3199L235.95 82.1199L233.25 81.3199L234.05 78.6199L236.75 79.4199M236.75 80.3199L235.95 82.1199L233.25 81.3199L234.05 78.6199L236.75 79.4199M249.35 55.2199L248.55 57.0199L245.75 56.2199L246.55 53.4199L249.35 54.2199M249.35 55.2199L248.55 57.0199L245.75 56.2199L246.55 53.4199L249.35 54.2199M266.05 55.2199L265.25 57.0199L262.45 56.2199L263.25 53.4199L266.05 54.2199M266.05 55.2199L265.25 57.0199L262.45 56.2199L263.25 53.4199L266.05 54.2199M249.35 59.4199L248.55 61.2199L245.75 60.4199L246.55 57.6199L249.35 58.4199M249.35 59.4199L248.55 61.2199L245.75 60.4199L246.55 57.6199L249.35 58.4199M266.05 59.4199L265.25 61.2199L262.45 60.4199L263.25 57.6199L266.05 58.4199M266.05 59.4199L265.25 61.2199L262.45 60.4199L263.25 57.6199L266.05 58.4199M249.35 63.6199L248.55 65.4199L245.75 64.6199L246.55 61.8199L249.35 62.6199M249.35 63.6199L248.55 65.4199L245.75 64.6199L246.55 61.8199L249.35 62.6199M253.55 63.6199L252.75 65.4199L249.95 64.6199L250.75 61.8199L253.45 62.6199M253.55 63.6199L252.75 65.4199L249.95 64.6199L250.75 61.8199L253.45 62.6199M266.05 63.6199L265.25 65.4199L262.45 64.6199L263.25 61.8199L266.05 62.6199M266.05 63.6199L265.25 65.4199L262.45 64.6199L263.25 61.8199L266.05 62.6199M249.35 67.8199L248.55 69.5199L245.75 68.8199L246.55 66.0199L249.35 66.8199M249.35 67.8199L248.55 69.5199L245.75 68.8199L246.55 66.0199L249.35 66.8199M257.65 67.8199L256.85 69.5199L254.15 68.8199L254.95 66.0199L257.65 66.8199M257.65 67.8199L256.85 69.5199L254.15 68.8199L254.95 66.0199L257.65 66.8199M266.05 67.8199L265.25 69.5199L262.45 68.8199L263.25 66.0199L266.05 66.8199M266.05 67.8199L265.25 69.5199L262.45 68.8199L263.25 66.0199L266.05 66.8199M249.35 72.0199L248.55 73.7199L245.75 72.9199L246.55 70.2199L249.35 71.0199M249.35 72.0199L248.55 73.7199L245.75 72.9199L246.55 70.2199L249.35 71.0199M261.85 72.0199L261.05 73.7199L258.35 72.9199L259.15 70.2199L261.85 71.0199M261.85 72.0199L261.05 73.7199L258.35 72.9199L259.15 70.2199L261.85 71.0199M266.05 72.0199L265.25 73.7199L262.45 72.9199L263.25 70.2199L266.05 71.0199M266.05 72.0199L265.25 73.7199L262.45 72.9199L263.25 70.2199L266.05 71.0199M249.35 76.1199L248.55 77.9199L245.75 77.1199L246.55 74.4199L249.35 75.2199M249.35 76.1199L248.55 77.9199L245.75 77.1199L246.55 74.4199L249.35 75.2199M266.05 76.1199L265.25 77.9199L262.45 77.1199L263.25 74.4199L266.05 75.2199M266.05 76.1199L265.25 77.9199L262.45 77.1199L263.25 74.4199L266.05 75.2199M249.35 80.3199L248.55 82.1199L245.75 81.3199L246.55 78.6199L249.35 79.4199M249.35 80.3199L248.55 82.1199L245.75 81.3199L246.55 78.6199L249.35 79.4199M266.05 80.3199L265.25 82.1199L262.45 81.3199L263.25 78.6199L266.05 79.4199M266.05 80.3199L265.25 82.1199L262.45 81.3199L263.25 78.6199L266.05 79.4199M282.85 55.2199L282.05 57.0199L279.25 56.2199L280.05 53.4199L282.75 54.2199M282.85 55.2199L282.05 57.0199L279.25 56.2199L280.05 53.4199L282.75 54.2199M287.05 55.2199L286.25 57.0199L283.45 56.2199L284.25 53.4199L287.05 54.2199M287.05 55.2199L286.25 57.0199L283.45 56.2199L284.25 53.4199L287.05 54.2199M291.15 55.2199L290.35 57.0199L287.65 56.2199L288.45 53.4199L291.15 54.2199M291.15 55.2199L290.35 57.0199L287.65 56.2199L288.45 53.4199L291.15 54.2199M278.65 59.4199L277.85 61.2199L275.05 60.4199L275.85 57.6199L278.55 58.4199M278.65 59.4199L277.85 61.2199L275.05 60.4199L275.85 57.6199L278.55 58.4199M295.35 59.4199L294.55 61.2199L291.75 60.4199L292.65 57.6199L295.35 58.4199M295.35 59.4199L294.55 61.2199L291.75 60.4199L292.65 57.6199L295.35 58.4199M278.65 63.6199L277.85 65.4199L275.05 64.6199L275.85 61.8199L278.55 62.6199M278.65 63.6199L277.85 65.4199L275.05 64.6199L275.85 61.8199L278.55 62.6199M295.35 63.6199L294.55 65.4199L291.75 64.6199L292.65 61.8199L295.35 62.6199M295.35 63.6199L294.55 65.4199L291.75 64.6199L292.65 61.8199L295.35 62.6199M278.65 67.8199L277.85 69.5199L275.05 68.8199L275.85 66.0199L278.55 66.8199M278.65 67.8199L277.85 69.5199L275.05 68.8199L275.85 66.0199L278.55 66.8199M295.35 67.8199L294.55 69.5199L291.75 68.8199L292.65 66.0199L295.35 66.8199M295.35 67.8199L294.55 69.5199L291.75 68.8199L292.65 66.0199L295.35 66.8199M278.65 72.0199L277.85 73.7199L275.05 72.9199L275.85 70.2199L278.55 71.0199M278.65 72.0199L277.85 73.7199L275.05 72.9199L275.85 70.2199L278.55 71.0199M295.35 72.0199L294.55 73.7199L291.75 72.9199L292.65 70.2199L295.35 71.0199M295.35 72.0199L294.55 73.7199L291.75 72.9199L292.65 70.2199L295.35 71.0199M278.65 76.1199L277.85 77.9199L275.05 77.1199L275.85 74.4199L278.55 75.2199M278.65 76.1199L277.85 77.9199L275.05 77.1199L275.85 74.4199L278.55 75.2199M295.35 76.1199L294.55 77.9199L291.75 77.1199L292.65 74.4199L295.35 75.2199M295.35 76.1199L294.55 77.9199L291.75 77.1199L292.65 74.4199L295.35 75.2199M282.85 80.3199L282.05 82.1199L279.25 81.3199L280.05 78.6199L282.75 79.4199M282.85 80.3199L282.05 82.1199L279.25 81.3199L280.05 78.6199L282.75 79.4199M287.05 80.3199L286.25 82.1199L283.45 81.3199L284.25 78.6199L287.05 79.4199M287.05 80.3199L286.25 82.1199L283.45 81.3199L284.25 78.6199L287.05 79.4199M291.15 80.3199L290.35 82.1199L287.65 81.3199L288.45 78.6199L291.15 79.4199M291.15 80.3199L290.35 82.1199L287.65 81.3199L288.45 78.6199L291.15 79.4199M307.95 55.2199L307.15 57.0199L304.35 56.2199L305.15 53.4199L307.95 54.2199M307.95 55.2199L307.15 57.0199L304.35 56.2199L305.15 53.4199L307.95 54.2199M307.95 59.4199L307.15 61.2199L304.35 60.4199L305.15 57.6199L307.95 58.4199M307.95 59.4199L307.15 61.2199L304.35 60.4199L305.15 57.6199L307.95 58.4199M307.95 63.6199L307.15 65.4199L304.35 64.6199L305.15 61.8199L307.95 62.6199M307.95 63.6199L307.15 65.4199L304.35 64.6199L305.15 61.8199L307.95 62.6199M307.95 67.8199L307.15 69.5199L304.35 68.8199L305.15 66.0199L307.95 66.8199M307.95 67.8199L307.15 69.5199L304.35 68.8199L305.15 66.0199L307.95 66.8199M307.95 72.0199L307.15 73.7199L304.35 72.9199L305.15 70.2199L307.95 71.0199M307.95 72.0199L307.15 73.7199L304.35 72.9199L305.15 70.2199L307.95 71.0199M307.95 76.1199L307.15 77.9199L304.35 77.1199L305.15 74.4199L307.95 75.2199M307.95 76.1199L307.15 77.9199L304.35 77.1199L305.15 74.4199L307.95 75.2199M307.95 80.3199L307.15 82.1199L304.35 81.3199L305.15 78.6199L307.95 79.4199M307.95 80.3199L307.15 82.1199L304.35 81.3199L305.15 78.6199L307.95 79.4199M312.15 80.3199L311.35 82.1199L308.55 81.3199L309.35 78.6199L312.15 79.4199M312.15 80.3199L311.35 82.1199L308.55 81.3199L309.35 78.6199L312.15 79.4199M316.25 80.3199L315.45 82.1199L312.75 81.3199L313.55 78.6199L316.25 79.4199M316.25 80.3199L315.45 82.1199L312.75 81.3199L313.55 78.6199L316.25 79.4199M320.45 80.3199L319.65 82.1199L316.95 81.3199L317.75 78.6199L320.45 79.4199M320.45 80.3199L319.65 82.1199L316.95 81.3199L317.75 78.6199L320.45 79.4199M324.65 80.3199L323.85 82.1199L321.15 81.3199L321.95 78.6199L324.65 79.4199M324.65 80.3199L323.85 82.1199L321.15 81.3199L321.95 78.6199L324.65 79.4199M341.45 55.2199L340.65 57.0199L337.85 56.2199L338.65 53.4199L341.45 54.2199M341.45 55.2199L340.65 57.0199L337.85 56.2199L338.65 53.4199L341.45 54.2199M345.65 55.2199L344.85 57.0199L342.05 56.2199L342.85 53.4199L345.65 54.2199M345.65 55.2199L344.85 57.0199L342.05 56.2199L342.85 53.4199L345.65 54.2199M349.75 55.2199L348.95 57.0199L346.25 56.2199L347.05 53.4199L349.75 54.2199M349.75 55.2199L348.95 57.0199L346.25 56.2199L347.05 53.4199L349.75 54.2199M337.25 59.4199L336.45 61.2199L333.65 60.4199L334.45 57.6199L337.25 58.4199M337.25 59.4199L336.45 61.2199L333.65 60.4199L334.45 57.6199L337.25 58.4199M353.95 59.4199L353.15 61.2199L350.45 60.4199L351.25 57.6199L353.95 58.4199M353.95 59.4199L353.15 61.2199L350.45 60.4199L351.25 57.6199L353.95 58.4199M337.25 63.6199L336.45 65.4199L333.65 64.6199L334.45 61.8199L337.25 62.6199M337.25 63.6199L336.45 65.4199L333.65 64.6199L334.45 61.8199L337.25 62.6199M353.95 63.6199L353.15 65.4199L350.45 64.6199L351.25 61.8199L353.95 62.6199M353.95 63.6199L353.15 65.4199L350.45 64.6199L351.25 61.8199L353.95 62.6199M337.25 67.8199L336.45 69.5199L333.65 68.8199L334.45 66.0199L337.25 66.8199M337.25 67.8199L336.45 69.5199L333.65 68.8199L334.45 66.0199L337.25 66.8199M353.95 67.8199L353.15 69.5199L350.45 68.8199L351.25 66.0199L353.95 66.8199M353.95 67.8199L353.15 69.5199L350.45 68.8199L351.25 66.0199L353.95 66.8199M337.25 72.0199L336.45 73.7199L333.65 72.9199L334.45 70.2199L337.25 71.0199M337.25 72.0199L336.45 73.7199L333.65 72.9199L334.45 70.2199L337.25 71.0199M353.95 72.0199L353.15 73.7199L350.45 72.9199L351.25 70.2199L353.95 71.0199M353.95 72.0199L353.15 73.7199L350.45 72.9199L351.25 70.2199L353.95 71.0199M337.25 76.1199L336.45 77.9199L333.65 77.1199L334.45 74.4199L337.25 75.2199M337.25 76.1199L336.45 77.9199L333.65 77.1199L334.45 74.4199L337.25 75.2199M353.95 76.1199L353.15 77.9199L350.45 77.1199L351.25 74.4199L353.95 75.2199M353.95 76.1199L353.15 77.9199L350.45 77.1199L351.25 74.4199L353.95 75.2199M341.45 80.3199L340.65 82.1199L337.85 81.3199L338.65 78.6199L341.45 79.4199M341.45 80.3199L340.65 82.1199L337.85 81.3199L338.65 78.6199L341.45 79.4199M345.65 80.3199L344.85 82.1199L342.05 81.3199L342.85 78.6199L345.65 79.4199M345.65 80.3199L344.85 82.1199L342.05 81.3199L342.85 78.6199L345.65 79.4199M349.75 80.3199L348.95 82.1199L346.25 81.3199L347.05 78.6199L349.75 79.4199M349.75 80.3199L348.95 82.1199L346.25 81.3199L347.05 78.6199L349.75 79.4199M374.95 46.8199L374.05 48.6199L371.35 47.8199L372.15 45.0199L374.85 45.8199M374.95 46.8199L374.05 48.6199L371.35 47.8199L372.15 45.0199L374.85 45.8199M370.75 42.6199L369.95 44.4199L367.15 43.6199L367.95 40.9199L370.75 41.7199M370.75 42.6199L369.95 44.4199L367.15 43.6199L367.95 40.9199L370.75 41.7199M379.05 42.6199L378.25 44.4199L375.55 43.6199L376.35 40.9199L379.05 41.7199M379.05 42.6199L378.25 44.4199L375.55 43.6199L376.35 40.9199L379.05 41.7199M370.75 55.2199L369.95 57.0199L367.15 56.2199L367.95 53.4199L370.75 54.2199M370.75 55.2199L369.95 57.0199L367.15 56.2199L367.95 53.4199L370.75 54.2199M374.95 55.2199L374.05 57.0199L371.35 56.2199L372.15 53.4199L374.85 54.2199M374.95 55.2199L374.05 57.0199L371.35 56.2199L372.15 53.4199L374.85 54.2199M379.05 55.2199L378.25 57.0199L375.55 56.2199L376.35 53.4199L379.05 54.2199M379.05 55.2199L378.25 57.0199L375.55 56.2199L376.35 53.4199L379.05 54.2199M366.55 59.4199L365.75 61.2199L362.95 60.4199L363.75 57.6199L366.55 58.4199M366.55 59.4199L365.75 61.2199L362.95 60.4199L363.75 57.6199L366.55 58.4199M383.25 59.4199L382.55 61.2199L379.75 60.4199L380.55 57.6199L383.35 58.4199M383.25 59.4199L382.55 61.2199L379.75 60.4199L380.55 57.6199L383.35 58.4199M366.55 63.6199L365.75 65.4199L362.95 64.6199L363.75 61.8199L366.55 62.6199M366.55 63.6199L365.75 65.4199L362.95 64.6199L363.75 61.8199L366.55 62.6199M370.75 67.8199L369.95 69.5199L367.15 68.8199L367.95 66.0199L370.75 66.8199M370.75 67.8199L369.95 69.5199L367.15 68.8199L367.95 66.0199L370.75 66.8199M374.95 67.8199L374.05 69.5199L371.35 68.8199L372.15 66.0199L374.85 66.8199M374.95 67.8199L374.05 69.5199L371.35 68.8199L372.15 66.0199L374.85 66.8199M379.05 67.8199L378.25 69.5199L375.55 68.8199L376.35 66.0199L379.05 66.8199M379.05 67.8199L378.25 69.5199L375.55 68.8199L376.35 66.0199L379.05 66.8199M383.25 72.0199L382.55 73.7199L379.75 72.9199L380.55 70.2199L383.35 71.0199M383.25 72.0199L382.55 73.7199L379.75 72.9199L380.55 70.2199L383.35 71.0199M366.55 76.1199L365.75 77.9199L362.95 77.1199L363.75 74.4199L366.55 75.2199M366.55 76.1199L365.75 77.9199L362.95 77.1199L363.75 74.4199L366.55 75.2199M383.25 76.1199L382.55 77.9199L379.75 77.1199L380.55 74.4199L383.35 75.2199M383.25 76.1199L382.55 77.9199L379.75 77.1199L380.55 74.4199L383.35 75.2199M370.75 80.3199L369.95 82.1199L367.15 81.3199L367.95 78.6199L370.75 79.4199M370.75 80.3199L369.95 82.1199L367.15 81.3199L367.95 78.6199L370.75 79.4199M374.95 80.3199L374.05 82.1199L371.35 81.3199L372.15 78.6199L374.85 79.4199M374.95 80.3199L374.05 82.1199L371.35 81.3199L372.15 78.6199L374.85 79.4199M379.05 80.3199L378.25 82.1199L375.55 81.3199L376.35 78.6199L379.05 79.4199M379.05 80.3199L378.25 82.1199L375.55 81.3199L376.35 78.6199L379.05 79.4199M395.85 55.2199L395.05 57.0199L392.25 56.2199L393.05 53.4199L395.85 54.2199M395.85 55.2199L395.05 57.0199L392.25 56.2199L393.05 53.4199L395.85 54.2199M412.55 55.2199L411.75 57.0199L409.05 56.2199L409.85 53.4199L412.55 54.2199M412.55 55.2199L411.75 57.0199L409.05 56.2199L409.85 53.4199L412.55 54.2199M395.85 59.4199L395.05 61.2199L392.25 60.4199L393.05 57.6199L395.85 58.4199M395.85 59.4199L395.05 61.2199L392.25 60.4199L393.05 57.6199L395.85 58.4199M408.35 59.4199L407.55 61.2199L404.85 60.4199L405.65 57.6199L408.35 58.4199M408.35 59.4199L407.55 61.2199L404.85 60.4199L405.65 57.6199L408.35 58.4199M395.85 63.6199L395.05 65.4199L392.25 64.6199L393.05 61.8199L395.85 62.6199M395.85 63.6199L395.05 65.4199L392.25 64.6199L393.05 61.8199L395.85 62.6199M404.25 63.6199L403.45 65.4199L400.65 64.6199L401.45 61.8199L404.25 62.6199M404.25 63.6199L403.45 65.4199L400.65 64.6199L401.45 61.8199L404.25 62.6199M395.85 67.8199L395.05 69.5199L392.25 68.8199L393.05 66.0199L395.85 66.8199M395.85 67.8199L395.05 69.5199L392.25 68.8199L393.05 66.0199L395.85 66.8199M400.05 67.8199L399.25 69.5199L396.45 68.8199L397.25 66.0199L400.05 66.8199M400.05 67.8199L399.25 69.5199L396.45 68.8199L397.25 66.0199L400.05 66.8199M404.25 67.8199L403.45 69.5199L400.65 68.8199L401.45 66.0199L404.25 66.8199M404.25 67.8199L403.45 69.5199L400.65 68.8199L401.45 66.0199L404.25 66.8199M408.35 67.8199L407.55 69.5199L404.85 68.8199L405.65 66.0199L408.35 66.8199M408.35 67.8199L407.55 69.5199L404.85 68.8199L405.65 66.0199L408.35 66.8199M395.85 72.0199L395.05 73.7199L392.25 72.9199L393.05 70.2199L395.85 71.0199M395.85 72.0199L395.05 73.7199L392.25 72.9199L393.05 70.2199L395.85 71.0199M412.55 72.0199L411.75 73.7199L409.05 72.9199L409.85 70.2199L412.55 71.0199M412.55 72.0199L411.75 73.7199L409.05 72.9199L409.85 70.2199L412.55 71.0199M395.85 76.1199L395.05 77.9199L392.25 77.1199L393.05 74.4199L395.85 75.2199M395.85 76.1199L395.05 77.9199L392.25 77.1199L393.05 74.4199L395.85 75.2199M412.55 76.1199L411.75 77.9199L409.05 77.1199L409.85 74.4199L412.55 75.2199M412.55 76.1199L411.75 77.9199L409.05 77.1199L409.85 74.4199L412.55 75.2199M395.85 80.3199L395.05 82.1199L392.25 81.3199L393.05 78.6199L395.85 79.4199M395.85 80.3199L395.05 82.1199L392.25 81.3199L393.05 78.6199L395.85 79.4199M412.55 80.3199L411.75 82.1199L409.05 81.3199L409.85 78.6199L412.55 79.4199M412.55 80.3199L411.75 82.1199L409.05 81.3199L409.85 78.6199L412.55 79.4199M429.35 55.2199L428.55 57.0199L425.75 56.2199L426.55 53.4199L429.35 54.2199M429.35 55.2199L428.55 57.0199L425.75 56.2199L426.55 53.4199L429.35 54.2199M433.55 55.2199L432.75 57.0199L429.95 56.2199L430.75 53.4199L433.55 54.2199M433.55 55.2199L432.75 57.0199L429.95 56.2199L430.75 53.4199L433.55 54.2199M437.75 55.2199L436.85 57.0199L434.15 56.2199L434.95 53.4199L437.75 54.2199M437.75 55.2199L436.85 57.0199L434.15 56.2199L434.95 53.4199L437.75 54.2199M433.55 59.4199L432.75 61.2199L429.95 60.4199L430.75 57.6199L433.55 58.4199M433.55 59.4199L432.75 61.2199L429.95 60.4199L430.75 57.6199L433.55 58.4199M433.55 63.6199L432.75 65.4199L429.95 64.6199L430.75 61.8199L433.55 62.6199M433.55 63.6199L432.75 65.4199L429.95 64.6199L430.75 61.8199L433.55 62.6199M433.55 67.8199L432.75 69.5199L429.95 68.8199L430.75 66.0199L433.55 66.8199M433.55 67.8199L432.75 69.5199L429.95 68.8199L430.75 66.0199L433.55 66.8199M433.55 72.0199L432.75 73.7199L429.95 72.9199L430.75 70.2199L433.55 71.0199M433.55 72.0199L432.75 73.7199L429.95 72.9199L430.75 70.2199L433.55 71.0199M433.55 76.1199L432.75 77.9199L429.95 77.1199L430.75 74.4199L433.55 75.2199M433.55 76.1199L432.75 77.9199L429.95 77.1199L430.75 74.4199L433.55 75.2199M429.35 80.3199L428.55 82.1199L425.75 81.3199L426.55 78.6199L429.35 79.4199M429.35 80.3199L428.55 82.1199L425.75 81.3199L426.55 78.6199L429.35 79.4199M433.55 80.3199L432.75 82.1199L429.95 81.3199L430.75 78.6199L433.55 79.4199M433.55 80.3199L432.75 82.1199L429.95 81.3199L430.75 78.6199L433.55 79.4199M437.75 80.3199L436.85 82.1199L434.15 81.3199L434.95 78.6199L437.75 79.4199M437.75 80.3199L436.85 82.1199L434.15 81.3199L434.95 78.6199L437.75 79.4199" fill="#A2A1A5"/>
<path d="M331.55 105.92L330.75 107.72L327.95 106.92L328.85 104.12L331.55 104.92M331.55 105.92L330.75 107.72L327.95 106.92L328.85 104.12L331.55 104.92M331.55 110.12L330.75 111.92L327.95 111.12L328.85 108.32L331.55 109.12M331.55 110.12L330.75 111.92L327.95 111.12L328.85 108.32L331.55 109.12M331.55 114.32L330.75 116.12L327.95 115.32L328.85 112.52L331.55 113.32M331.55 114.32L330.75 116.12L327.95 115.32L328.85 112.52L331.55 113.32M331.55 118.52L330.75 120.32L327.95 119.52L328.85 116.82L331.55 117.62M331.55 118.52L330.75 120.32L327.95 119.52L328.85 116.82L331.55 117.62M331.55 122.82L330.75 124.52L327.95 123.72L328.85 121.02L331.55 121.82M331.55 122.82L330.75 124.52L327.95 123.72L328.85 121.02L331.55 121.82M331.55 127.02L330.75 128.82L327.95 127.92L328.85 125.22L331.55 126.02M331.55 127.02L330.75 128.82L327.95 127.92L328.85 125.22L331.55 126.02M331.55 131.22L330.75 132.92L327.95 132.12L328.85 129.42L331.55 130.12M331.55 131.22L330.75 132.92L327.95 132.12L328.85 129.42L331.55 130.12M335.75 131.22L334.95 132.92L332.15 132.12L332.95 129.42L335.75 130.12M335.75 131.22L334.95 132.92L332.15 132.12L332.95 129.42L335.75 130.12M339.95 131.22L339.15 132.92L336.35 132.12L337.25 129.42L339.95 130.12M339.95 131.22L339.15 132.92L336.35 132.12L337.25 129.42L339.95 130.12M344.15 131.22L343.35 132.92L340.65 132.12L341.45 129.42L344.15 130.12M344.15 131.22L343.35 132.92L340.65 132.12L341.45 129.42L344.15 130.12M348.35 131.22L347.55 132.92L344.75 132.12L345.65 129.42L348.35 130.12M348.35 131.22L347.55 132.92L344.75 132.12L345.65 129.42L348.35 130.12M377.85 105.92L377.05 107.72L374.25 106.92L375.05 104.12L377.85 104.92M377.85 105.92L377.05 107.72L374.25 106.92L375.05 104.12L377.85 104.92M360.95 127.02L360.15 128.82L357.45 127.92L358.15 125.22L360.95 126.02M360.95 127.02L360.15 128.82L357.45 127.92L358.15 125.22L360.95 126.02M373.55 105.92L372.75 107.72L370.05 106.92L370.85 104.12L373.55 104.92M373.55 105.92L372.75 107.72L370.05 106.92L370.85 104.12L373.55 104.92M369.35 105.92L368.55 107.72L365.85 106.92L366.65 104.12L369.45 104.92M369.35 105.92L368.55 107.72L365.85 106.92L366.65 104.12L369.45 104.92M373.55 110.12L372.75 111.92L370.05 111.12L370.85 108.42L373.55 109.22M373.55 110.12L372.75 111.92L370.05 111.12L370.85 108.42L373.55 109.22M373.55 114.32L372.75 116.12L370.05 115.32L370.85 112.52L373.55 113.32M373.55 114.32L372.75 116.12L370.05 115.32L370.85 112.52L373.55 113.32M373.55 118.52L372.75 120.32L370.05 119.52L370.85 116.82L373.55 117.62M373.55 118.52L372.75 120.32L370.05 119.52L370.85 116.82L373.55 117.62M373.55 122.82L372.75 124.52L370.05 123.72L370.85 121.02L373.55 121.82M373.55 122.82L372.75 124.52L370.05 123.72L370.85 121.02L373.55 121.82M373.55 127.02L372.75 128.82L370.05 127.92L370.85 125.22L373.55 126.02M373.55 127.02L372.75 128.82L370.05 127.92L370.85 125.22L373.55 126.02M365.15 131.22L364.35 132.92L361.65 132.12L362.35 129.42L365.15 130.12M365.15 131.22L364.35 132.92L361.65 132.12L362.35 129.42L365.15 130.12M369.35 131.22L368.55 132.92L365.85 132.12L366.55 129.42L369.35 130.12M369.35 131.22L368.55 132.92L365.85 132.12L366.55 129.42L369.35 130.12M390.45 105.92L389.65 107.72L386.85 106.92L387.65 104.12L390.45 104.92M390.45 105.92L389.65 107.72L386.85 106.92L387.65 104.12L390.45 104.92M407.25 105.92L406.45 107.72L403.65 106.92L404.45 104.12L407.25 104.92M407.25 105.92L406.45 107.72L403.65 106.92L404.45 104.12L407.25 104.92M390.45 110.12L389.65 111.92L386.85 111.12L387.65 108.42L390.45 109.22M390.45 110.12L389.65 111.92L386.85 111.12L387.65 108.42L390.45 109.22M407.25 110.12L406.45 111.92L403.65 111.12L404.45 108.42L407.25 109.22M407.25 110.12L406.45 111.92L403.65 111.12L404.45 108.42L407.25 109.22M390.45 114.32L389.65 116.12L386.85 115.32L387.65 112.52L390.45 113.32M390.45 114.32L389.65 116.12L386.85 115.32L387.65 112.52L390.45 113.32M407.25 114.32L406.45 116.12L403.65 115.32L404.45 112.52L407.25 113.32M407.25 114.32L406.45 116.12L403.65 115.32L404.45 112.52L407.25 113.32M390.45 118.52L389.65 120.32L386.85 119.52L387.65 116.82L390.45 117.62M390.45 118.52L389.65 120.32L386.85 119.52L387.65 116.82L390.45 117.62M407.25 118.52L406.45 120.32L403.65 119.52L404.45 116.82L407.25 117.62M407.25 118.52L406.45 120.32L403.65 119.52L404.45 116.82L407.25 117.62M390.45 122.82L389.65 124.52L386.85 123.72L387.65 121.02L390.45 121.82M390.45 122.82L389.65 124.52L386.85 123.72L387.65 121.02L390.45 121.82M407.25 122.82L406.45 124.52L403.65 123.72L404.45 121.02L407.25 121.82M407.25 122.82L406.45 124.52L403.65 123.72L404.45 121.02L407.25 121.82M390.45 127.02L389.65 128.82L386.85 127.92L387.65 125.22L390.45 126.02M390.45 127.02L389.65 128.82L386.85 127.92L387.65 125.22L390.45 126.02M407.25 127.02L406.45 128.82L403.65 127.92L404.45 125.22L407.25 126.02M407.25 127.02L406.45 128.82L403.65 127.92L404.45 125.22L407.25 126.02M394.65 131.22L393.75 132.92L391.05 132.12L391.85 129.42L394.65 130.12M394.65 131.22L393.75 132.92L391.05 132.12L391.85 129.42L394.65 130.12M398.85 131.22L398.05 132.92L395.25 132.12L396.05 129.42L398.85 130.12M398.85 131.22L398.05 132.92L395.25 132.12L396.05 129.42L398.85 130.12M403.05 131.22L402.25 132.92L399.45 132.12L400.25 129.42L403.05 130.12M403.05 131.22L402.25 132.92L399.45 132.12L400.25 129.42L403.05 130.12M419.85 105.92L419.05 107.72L416.25 106.92L417.05 104.12L419.85 104.92M419.85 105.92L419.05 107.72L416.25 106.92L417.05 104.12L419.85 104.92M424.05 105.92L423.25 107.72L420.45 106.92L421.25 104.12L424.05 104.92M424.05 105.92L423.25 107.72L420.45 106.92L421.25 104.12L424.05 104.92M428.25 105.92L427.45 107.72L424.65 106.92L425.45 104.12L428.25 104.92M428.25 105.92L427.45 107.72L424.65 106.92L425.45 104.12L428.25 104.92M432.45 105.92L431.65 107.72L428.85 106.92L429.65 104.12L432.45 104.92M432.45 105.92L431.65 107.72L428.85 106.92L429.65 104.12L432.45 104.92M419.85 110.12L419.05 111.92L416.25 111.12L417.05 108.42L419.75 109.22M419.85 110.12L419.05 111.92L416.25 111.12L417.05 108.42L419.75 109.22M436.65 110.12L435.85 111.92L433.05 111.12L433.85 108.42L436.65 109.22M436.65 110.12L435.85 111.92L433.05 111.12L433.85 108.42L436.65 109.22M419.85 114.32L419.05 116.12L416.25 115.32L417.05 112.52L419.75 113.32M419.85 114.32L419.05 116.12L416.25 115.32L417.05 112.52L419.75 113.32M436.65 114.32L435.85 116.12L433.05 115.32L433.85 112.52L436.65 113.32M436.65 114.32L435.85 116.12L433.05 115.32L433.85 112.52L436.65 113.32M419.85 118.52L419.05 120.32L416.25 119.52L417.05 116.82L419.75 117.62M419.85 118.52L419.05 120.32L416.25 119.52L417.05 116.82L419.75 117.62M424.05 118.52L423.25 120.32L420.45 119.52L421.25 116.82L424.05 117.62M424.05 118.52L423.25 120.32L420.45 119.52L421.25 116.82L424.05 117.62M428.25 118.52L427.45 120.32L424.65 119.52L425.45 116.82L428.25 117.62M428.25 118.52L427.45 120.32L424.65 119.52L425.45 116.82L428.25 117.62M432.45 118.52L431.65 120.32L428.85 119.52L429.65 116.82L432.45 117.62M432.45 118.52L431.65 120.32L428.85 119.52L429.65 116.82L432.45 117.62M419.85 122.82L419.05 124.52L416.25 123.72L417.05 121.02L419.75 121.82M419.85 122.82L419.05 124.52L416.25 123.72L417.05 121.02L419.75 121.82M436.65 122.82L435.85 124.52L433.05 123.72L433.85 121.02L436.65 121.82M436.65 122.82L435.85 124.52L433.05 123.72L433.85 121.02L436.65 121.82M419.85 127.02L419.05 128.82L416.25 127.92L417.05 125.22L419.75 126.02M419.85 127.02L419.05 128.82L416.25 127.92L417.05 125.22L419.75 126.02M436.65 127.02L435.85 128.82L433.05 127.92L433.85 125.22L436.65 126.02M436.65 127.02L435.85 128.82L433.05 127.92L433.85 125.22L436.65 126.02M419.85 131.22L419.05 132.92L416.25 132.12L417.05 129.42L419.75 130.12M419.85 131.22L419.05 132.92L416.25 132.12L417.05 129.42L419.75 130.12M424.05 131.22L423.25 132.92L420.45 132.12L421.25 129.42L424.05 130.12M424.05 131.22L423.25 132.92L420.45 132.12L421.25 129.42L424.05 130.12M428.25 131.22L427.45 132.92L424.65 132.12L425.45 129.42L428.25 130.12M428.25 131.22L427.45 132.92L424.65 132.12L425.45 129.42L428.25 130.12M432.45 131.22L431.65 132.92L428.85 132.12L429.65 129.42L432.45 130.12M432.45 131.22L431.65 132.92L428.85 132.12L429.65 129.42L432.45 130.12M449.25 105.92L448.45 107.72L445.65 106.92L446.45 104.12L449.25 104.92M449.25 105.92L448.45 107.72L445.65 106.92L446.45 104.12L449.25 104.92M449.25 110.12L448.45 111.92L445.65 111.12L446.45 108.42L449.25 109.22M449.25 110.12L448.45 111.92L445.65 111.12L446.45 108.42L449.25 109.22M449.25 114.32L448.45 116.12L445.65 115.32L446.45 112.52L449.25 113.32M449.25 114.32L448.45 116.12L445.65 115.32L446.45 112.52L449.25 113.32M449.25 118.52L448.45 120.32L445.65 119.52L446.45 116.82L449.25 117.62M449.25 118.52L448.45 120.32L445.65 119.52L446.45 116.82L449.25 117.62M449.25 122.82L448.45 124.52L445.65 123.72L446.45 121.02L449.25 121.82M449.25 122.82L448.45 124.52L445.65 123.72L446.45 121.02L449.25 121.82M449.25 127.02L448.45 128.82L445.65 127.92L446.45 125.22L449.25 126.02M449.25 127.02L448.45 128.82L445.65 127.92L446.45 125.22L449.25 126.02M449.25 131.22L448.45 132.92L445.65 132.12L446.45 129.42L449.25 130.12M449.25 131.22L448.45 132.92L445.65 132.12L446.45 129.42L449.25 130.12M453.45 131.22L452.65 132.92L449.85 132.12L450.65 129.42L453.45 130.12M453.45 131.22L452.65 132.92L449.85 132.12L450.65 129.42L453.45 130.12M457.65 131.22L456.85 132.92L454.05 132.12L454.85 129.42L457.65 130.12M457.65 131.22L456.85 132.92L454.05 132.12L454.85 129.42L457.65 130.12M461.85 131.22L461.05 132.92L458.25 132.12L459.05 129.42L461.85 130.12M461.85 131.22L461.05 132.92L458.25 132.12L459.05 129.42L461.85 130.12M466.05 131.22L465.25 132.92L462.45 132.12L463.25 129.42L466.05 130.12M466.05 131.22L465.25 132.92L462.45 132.12L463.25 129.42L466.05 130.12M495.45 105.92L494.65 107.72L491.85 106.92L492.65 104.12L495.45 104.92M495.45 105.92L494.65 107.72L491.85 106.92L492.65 104.12L495.45 104.92M478.65 127.02L477.85 128.82L475.05 127.92L475.85 125.22L478.65 126.02M478.65 127.02L477.85 128.82L475.05 127.92L475.85 125.22L478.65 126.02M491.25 105.92L490.45 107.72L487.65 106.92L488.45 104.12L491.25 104.92M491.25 105.92L490.45 107.72L487.65 106.92L488.45 104.12L491.25 104.92M487.05 105.92L486.25 107.72L483.45 106.92L484.25 104.12L487.05 104.92M487.05 105.92L486.25 107.72L483.45 106.92L484.25 104.12L487.05 104.92M491.25 110.12L490.45 111.92L487.65 111.12L488.45 108.42L491.25 109.22M491.25 110.12L490.45 111.92L487.65 111.12L488.45 108.42L491.25 109.22M491.25 114.32L490.45 116.12L487.65 115.32L488.45 112.52L491.25 113.32M491.25 114.32L490.45 116.12L487.65 115.32L488.45 112.52L491.25 113.32M491.25 118.52L490.45 120.32L487.65 119.52L488.45 116.82L491.25 117.62M491.25 118.52L490.45 120.32L487.65 119.52L488.45 116.82L491.25 117.62M491.25 122.82L490.45 124.52L487.65 123.72L488.45 121.02L491.25 121.82M491.25 122.82L490.45 124.52L487.65 123.72L488.45 121.02L491.25 121.82M491.25 127.02L490.45 128.82L487.65 127.92L488.45 125.22L491.25 126.02M491.25 127.02L490.45 128.82L487.65 127.92L488.45 125.22L491.25 126.02M482.85 131.22L482.05 132.92L479.25 132.12L480.05 129.42L482.85 130.12M482.85 131.22L482.05 132.92L479.25 132.12L480.05 129.42L482.85 130.12M487.05 131.22L486.25 132.92L483.55 132.12L484.35 129.42L487.05 130.12M487.05 131.22L486.25 132.92L483.55 132.12L484.35 129.42L487.05 130.12M512.25 105.92L511.45 107.72L508.75 106.92L509.55 104.12L512.25 104.92M512.25 105.92L511.45 107.72L508.75 106.92L509.55 104.12L512.25 104.92M516.45 105.92L515.65 107.72L512.95 106.92L513.75 104.12L516.45 104.92M516.45 105.92L515.65 107.72L512.95 106.92L513.75 104.12L516.45 104.92M520.65 105.92L519.85 107.72L517.15 106.92L517.95 104.12L520.75 104.92M520.65 105.92L519.85 107.72L517.15 106.92L517.95 104.12L520.75 104.92M508.05 110.12L507.25 111.92L504.55 111.12L505.35 108.42L508.05 109.22M508.05 110.12L507.25 111.92L504.55 111.12L505.35 108.42L508.05 109.22M524.85 110.12L524.05 111.92L521.35 111.12L522.15 108.42L524.85 109.22M524.85 110.12L524.05 111.92L521.35 111.12L522.15 108.42L524.85 109.22M508.05 114.32L507.25 116.12L504.55 115.32L505.35 112.52L508.05 113.32M508.05 114.32L507.25 116.12L504.55 115.32L505.35 112.52L508.05 113.32M524.85 114.32L524.05 116.12L521.35 115.32L522.15 112.52L524.85 113.32M524.85 114.32L524.05 116.12L521.35 115.32L522.15 112.52L524.85 113.32M508.05 118.52L507.25 120.32L504.55 119.52L505.35 116.82L508.05 117.62M508.05 118.52L507.25 120.32L504.55 119.52L505.35 116.82L508.05 117.62M524.85 118.52L524.05 120.32L521.35 119.52L522.15 116.82L524.85 117.62M524.85 118.52L524.05 120.32L521.35 119.52L522.15 116.82L524.85 117.62M508.05 122.82L507.25 124.52L504.55 123.72L505.35 121.02L508.05 121.82M508.05 122.82L507.25 124.52L504.55 123.72L505.35 121.02L508.05 121.82M512.25 122.82L511.45 124.52L508.75 123.72L509.55 121.02L512.25 121.82M512.25 122.82L511.45 124.52L508.75 123.72L509.55 121.02L512.25 121.82M516.45 122.82L515.65 124.52L512.95 123.72L513.75 121.02L516.45 121.82M516.45 122.82L515.65 124.52L512.95 123.72L513.75 121.02L516.45 121.82M520.65 122.82L519.85 124.52L517.15 123.72L517.95 121.02L520.75 121.82M520.65 122.82L519.85 124.52L517.15 123.72L517.95 121.02L520.75 121.82M524.85 122.82L524.05 124.52L521.35 123.72L522.15 121.02L524.85 121.82M524.85 122.82L524.05 124.52L521.35 123.72L522.15 121.02L524.85 121.82M508.05 127.02L507.25 128.82L504.55 127.92L505.35 125.22L508.05 126.02M508.05 127.02L507.25 128.82L504.55 127.92L505.35 125.22L508.05 126.02M524.85 127.02L524.05 128.82L521.35 127.92L522.15 125.22L524.85 126.02M524.85 127.02L524.05 128.82L521.35 127.92L522.15 125.22L524.85 126.02M508.05 131.22L507.25 132.92L504.55 132.12L505.35 129.42L508.05 130.12M508.05 131.22L507.25 132.92L504.55 132.12L505.35 129.42L508.05 130.12M524.85 131.22L524.05 132.92L521.35 132.12L522.15 129.42L524.85 130.12M524.85 131.22L524.05 132.92L521.35 132.12L522.15 129.42L524.85 130.12M537.45 105.92L536.65 107.72L533.95 106.92L534.75 104.12L537.55 104.92M537.45 105.92L536.65 107.72L533.95 106.92L534.75 104.12L537.55 104.92M554.25 105.92L553.45 107.72L550.75 106.92L551.45 104.12L554.25 104.92M554.25 105.92L553.45 107.72L550.75 106.92L551.45 104.12L554.25 104.92M537.45 110.12L536.65 111.92L533.95 111.12L534.75 108.42L537.55 109.22M537.45 110.12L536.65 111.92L533.95 111.12L534.75 108.42L537.55 109.22M554.25 110.12L553.45 111.92L550.75 111.12L551.45 108.42L554.25 109.22M554.25 110.12L553.45 111.92L550.75 111.12L551.45 108.42L554.25 109.22M537.45 114.32L536.65 116.12L533.95 115.32L534.75 112.52L537.55 113.32M537.45 114.32L536.65 116.12L533.95 115.32L534.75 112.52L537.55 113.32M541.65 114.32L540.95 116.12L538.15 115.32L538.95 112.52L541.75 113.32M541.65 114.32L540.95 116.12L538.15 115.32L538.95 112.52L541.75 113.32M554.25 114.32L553.45 116.12L550.75 115.32L551.45 112.52L554.25 113.32M554.25 114.32L553.45 116.12L550.75 115.32L551.45 112.52L554.25 113.32M537.45 118.52L536.65 120.32L533.95 119.52L534.75 116.82L537.55 117.62M537.45 118.52L536.65 120.32L533.95 119.52L534.75 116.82L537.55 117.62M545.95 118.52L545.05 120.32L542.35 119.52L543.15 116.82L545.95 117.62M545.95 118.52L545.05 120.32L542.35 119.52L543.15 116.82L545.95 117.62M554.25 118.52L553.45 120.32L550.75 119.52L551.45 116.82L554.25 117.62M554.25 118.52L553.45 120.32L550.75 119.52L551.45 116.82L554.25 117.62M537.45 122.82L536.65 124.52L533.95 123.72L534.75 121.02L537.55 121.82M537.45 122.82L536.65 124.52L533.95 123.72L534.75 121.02L537.55 121.82M550.15 122.82L549.35 124.52L546.55 123.72L547.35 121.02L550.15 121.82M550.15 122.82L549.35 124.52L546.55 123.72L547.35 121.02L550.15 121.82M554.25 122.82L553.45 124.52L550.75 123.72L551.45 121.02L554.25 121.82M554.25 122.82L553.45 124.52L550.75 123.72L551.45 121.02L554.25 121.82M537.45 127.02L536.65 128.82L533.95 127.92L534.75 125.22L537.55 126.02M537.45 127.02L536.65 128.82L533.95 127.92L534.75 125.22L537.55 126.02M554.25 127.02L553.45 128.82L550.75 127.92L551.45 125.22L554.25 126.02M554.25 127.02L553.45 128.82L550.75 127.92L551.45 125.22L554.25 126.02M537.45 131.22L536.65 132.92L533.95 132.12L534.75 129.42L537.55 130.12M537.45 131.22L536.65 132.92L533.95 132.12L534.75 129.42L537.55 130.12M554.25 131.22L553.45 132.92L550.75 132.12L551.45 129.42L554.25 130.12M554.25 131.22L553.45 132.92L550.75 132.12L551.45 129.42L554.25 130.12M571.15 105.92L570.35 107.72L567.55 106.92L568.35 104.12L571.15 104.92M571.15 105.92L570.35 107.72L567.55 106.92L568.35 104.12L571.15 104.92M575.35 105.92L574.55 107.72L571.75 106.92L572.55 104.12L575.35 104.92M575.35 105.92L574.55 107.72L571.75 106.92L572.55 104.12L575.35 104.92M579.55 105.92L578.75 107.72L575.95 106.92L576.75 104.12L579.55 104.92M579.55 105.92L578.75 107.72L575.95 106.92L576.75 104.12L579.55 104.92M566.95 110.12L566.15 111.92L563.35 111.12L564.15 108.42L566.95 109.22M566.95 110.12L566.15 111.92L563.35 111.12L564.15 108.42L566.95 109.22M583.75 110.12L582.95 111.92L580.15 111.12L580.95 108.42L583.75 109.22M583.75 110.12L582.95 111.92L580.15 111.12L580.95 108.42L583.75 109.22M566.95 114.32L566.15 116.12L563.35 115.32L564.15 112.52L566.95 113.32M566.95 114.32L566.15 116.12L563.35 115.32L564.15 112.52L566.95 113.32M583.75 114.32L582.95 116.12L580.15 115.32L580.95 112.52L583.75 113.32M583.75 114.32L582.95 116.12L580.15 115.32L580.95 112.52L583.75 113.32M566.95 118.52L566.15 120.32L563.35 119.52L564.15 116.82L566.95 117.62M566.95 118.52L566.15 120.32L563.35 119.52L564.15 116.82L566.95 117.62M583.75 118.52L582.95 120.32L580.15 119.52L580.95 116.82L583.75 117.62M583.75 118.52L582.95 120.32L580.15 119.52L580.95 116.82L583.75 117.62M566.95 122.82L566.15 124.52L563.35 123.72L564.15 121.02L566.95 121.82M566.95 122.82L566.15 124.52L563.35 123.72L564.15 121.02L566.95 121.82M571.15 122.82L570.35 124.52L567.55 123.72L568.35 121.02L571.15 121.82M571.15 122.82L570.35 124.52L567.55 123.72L568.35 121.02L571.15 121.82M575.35 122.82L574.55 124.52L571.75 123.72L572.55 121.02L575.35 121.82M575.35 122.82L574.55 124.52L571.75 123.72L572.55 121.02L575.35 121.82M579.55 122.82L578.75 124.52L575.95 123.72L576.75 121.02L579.45 121.82M579.55 122.82L578.75 124.52L575.95 123.72L576.75 121.02L579.45 121.82M583.75 122.82L582.95 124.52L580.15 123.72L580.95 121.02L583.75 121.82M583.75 122.82L582.95 124.52L580.15 123.72L580.95 121.02L583.75 121.82M566.95 127.02L566.15 128.82L563.35 127.92L564.15 125.22L566.95 126.02M566.95 127.02L566.15 128.82L563.35 127.92L564.15 125.22L566.95 126.02M583.75 127.02L582.95 128.82L580.15 127.92L580.95 125.22L583.75 126.02M583.75 127.02L582.95 128.82L580.15 127.92L580.95 125.22L583.75 126.02M566.95 131.22L566.15 132.92L563.35 132.12L564.15 129.42L566.95 130.12M566.95 131.22L566.15 132.92L563.35 132.12L564.15 129.42L566.95 130.12M583.75 131.22L582.95 132.92L580.15 132.12L580.95 129.42L583.75 130.12M583.75 131.22L582.95 132.92L580.15 132.12L580.95 129.42L583.75 130.12" fill="#A2A1A5"/>
<path d="M536.95 159.12H540.55V155.62H536.95V159.12ZM541.15 159.12H544.65V155.52H541.15V159.12ZM545.35 159.12H548.85V155.52H545.35V159.12ZM532.75 163.32H536.35V159.82H532.75V163.32ZM549.45 163.32H553.05V159.72H549.45V163.32ZM532.75 167.52H536.35V163.92H532.75V167.52ZM536.95 167.52H540.55V164.02H536.95V167.52ZM549.45 167.52H553.05V163.92H549.45V167.52ZM532.75 171.72H536.35V168.12H532.75V171.72ZM541.15 171.72H544.65V168.22H541.15V171.72ZM549.45 171.72H553.05V168.12H549.45V171.72ZM532.75 175.92H536.35V172.32H532.75V175.92ZM545.35 175.92H548.85V172.42H545.35V175.92ZM549.45 175.92H553.05V172.32H549.45V175.92ZM532.75 180.12H536.35V176.62H532.75V180.12ZM549.45 180.12H553.05V176.52H549.45V180.12ZM536.95 184.32H540.55V180.72H536.95V184.32ZM541.15 184.32H544.65V180.72H541.15V184.32ZM545.35 184.32H548.85V180.82H545.35V184.32ZM566.15 159.22H569.75V155.72H566.15V159.22ZM570.35 159.22H573.85V155.62H570.35V159.22ZM561.95 159.22H565.55V155.72H561.95V159.22ZM570.35 163.32H573.85V159.82H570.35V163.32ZM570.35 167.42H573.85V163.92H570.35V167.42ZM570.35 171.62H573.85V168.02H570.35V171.62ZM570.35 175.82H573.85V172.22H570.35V175.82ZM570.35 180.02H573.85V176.52H570.35V180.02ZM561.95 184.12H565.55V180.62H561.95V184.12ZM566.15 184.12H569.75V180.52H566.15V184.12ZM570.35 184.12H573.85V180.52H570.35V184.12ZM574.55 184.12H578.05V180.62H574.55V184.12ZM578.65 184.12H582.25V180.52H578.65V184.12Z" fill="#70C72D"/>
<path d="M478.85 54.82L478.05 56.62L475.25 55.82L476.05 53.02L478.85 53.82M478.85 54.82L478.05 56.62L475.25 55.82L476.05 53.02L478.85 53.82M483.05 54.82L482.25 56.62L479.45 55.82L480.25 53.02L483.05 53.82M483.05 54.82L482.25 56.62L479.45 55.82L480.25 53.02L483.05 53.82M487.35 54.82L486.45 56.62L483.65 55.82L484.55 53.02L487.35 53.82M487.35 54.82L486.45 56.62L483.65 55.82L484.55 53.02L487.35 53.82M491.55 54.82L490.75 56.62L487.95 55.82L488.75 53.02L491.55 53.82M491.55 54.82L490.75 56.62L487.95 55.82L488.75 53.02L491.55 53.82M478.85 59.02L478.05 60.82L475.25 60.02L476.05 57.22L478.85 58.02M478.85 59.02L478.05 60.82L475.25 60.02L476.05 57.22L478.85 58.02M495.75 59.02L494.95 60.82L492.15 60.02L492.95 57.22L495.75 58.02M495.75 59.02L494.95 60.82L492.15 60.02L492.95 57.22L495.75 58.02M478.85 63.32L478.05 65.12L475.25 64.22L476.05 61.52L478.85 62.22M478.85 63.32L478.05 65.12L475.25 64.22L476.05 61.52L478.85 62.22M495.75 63.32L494.95 65.12L492.15 64.22L492.95 61.52L495.75 62.22M495.75 63.32L494.95 65.12L492.15 64.22L492.95 61.52L495.75 62.22M478.85 67.52L478.05 69.32L475.25 68.52L476.05 65.72L478.85 66.52M478.85 67.52L478.05 69.32L475.25 68.52L476.05 65.72L478.85 66.52M483.05 67.52L482.25 69.32L479.45 68.52L480.25 65.72L483.05 66.52M483.05 67.52L482.25 69.32L479.45 68.52L480.25 65.72L483.05 66.52M487.35 67.52L486.45 69.32L483.65 68.52L484.55 65.72L487.35 66.52M487.35 67.52L486.45 69.32L483.65 68.52L484.55 65.72L487.35 66.52M491.55 67.52L490.75 69.32L487.95 68.52L488.75 65.72L491.55 66.52M491.55 67.52L490.75 69.32L487.95 68.52L488.75 65.72L491.55 66.52M478.85 71.72L478.05 73.52L475.25 72.72L476.05 69.92L478.85 70.72M478.85 71.72L478.05 73.52L475.25 72.72L476.05 69.92L478.85 70.72M478.85 75.92L478.05 77.72L475.25 76.92L476.05 74.12L478.85 75.02M478.85 75.92L478.05 77.72L475.25 76.92L476.05 74.12L478.85 75.02M478.85 80.22L478.05 82.02L475.25 81.12L476.05 78.42L478.85 79.22M478.85 80.22L478.05 82.02L475.25 81.12L476.05 78.42L478.85 79.22M512.65 54.82L511.85 56.62L509.05 55.82L509.85 53.02L512.65 53.82M512.65 54.82L511.85 56.62L509.05 55.82L509.85 53.02L512.65 53.82M516.85 54.82L516.05 56.62L513.25 55.82L514.05 53.02L516.85 53.82M516.85 54.82L516.05 56.62L513.25 55.82L514.05 53.02L516.85 53.82M521.05 54.82L520.25 56.62L517.45 55.82L518.25 53.02L521.05 53.82M521.05 54.82L520.25 56.62L517.45 55.82L518.25 53.02L521.05 53.82M508.45 59.02L507.65 60.82L504.85 60.02L505.65 57.22L508.45 58.02M508.45 59.02L507.65 60.82L504.85 60.02L505.65 57.22L508.45 58.02M525.35 59.02L524.55 60.82L521.75 60.02L522.55 57.22L525.35 58.02M525.35 59.02L524.55 60.82L521.75 60.02L522.55 57.22L525.35 58.02M508.45 63.32L507.65 65.12L504.85 64.22L505.65 61.52L508.45 62.22M508.45 63.32L507.65 65.12L504.85 64.22L505.65 61.52L508.45 62.22M525.35 63.32L524.55 65.12L521.75 64.22L522.55 61.52L525.35 62.22M525.35 63.32L524.55 65.12L521.75 64.22L522.55 61.52L525.35 62.22M508.45 67.52L507.65 69.32L504.85 68.52L505.65 65.72L508.45 66.52M508.45 67.52L507.65 69.32L504.85 68.52L505.65 65.72L508.45 66.52M525.35 67.52L524.55 69.32L521.75 68.52L522.55 65.72L525.35 66.52M525.35 67.52L524.55 69.32L521.75 68.52L522.55 65.72L525.35 66.52M508.45 71.72L507.65 73.52L504.85 72.72L505.65 69.92L508.45 70.72M508.45 71.72L507.65 73.52L504.85 72.72L505.65 69.92L508.45 70.72M512.65 71.72L511.85 73.52L509.05 72.72L509.85 69.92L512.65 70.72M512.65 71.72L511.85 73.52L509.05 72.72L509.85 69.92L512.65 70.72M516.85 71.72L516.05 73.52L513.25 72.72L514.05 69.92L516.85 70.72M516.85 71.72L516.05 73.52L513.25 72.72L514.05 69.92L516.85 70.72M521.05 71.72L520.25 73.52L517.45 72.72L518.25 69.92L521.05 70.72M521.05 71.72L520.25 73.52L517.45 72.72L518.25 69.92L521.05 70.72M525.35 71.72L524.55 73.52L521.75 72.72L522.55 69.92L525.35 70.72M525.35 71.72L524.55 73.52L521.75 72.72L522.55 69.92L525.35 70.72M508.45 75.92L507.65 77.72L504.85 76.92L505.65 74.12L508.45 75.02M508.45 75.92L507.65 77.72L504.85 76.92L505.65 74.12L508.45 75.02M525.35 75.92L524.55 77.72L521.75 76.92L522.55 74.12L525.35 75.02M525.35 75.92L524.55 77.72L521.75 76.92L522.55 74.12L525.35 75.02M508.45 80.22L507.65 82.02L504.85 81.12L505.65 78.42L508.45 79.22M508.45 80.22L507.65 82.02L504.85 81.12L505.65 78.42L508.45 79.22M525.35 80.22L524.55 82.02L521.75 81.12L522.55 78.42L525.35 79.22M525.35 80.22L524.55 82.02L521.75 81.12L522.55 78.42L525.35 79.22M537.95 54.82L537.15 56.62L534.35 55.82L535.15 53.02L537.95 53.82M537.95 54.82L537.15 56.62L534.35 55.82L535.15 53.02L537.95 53.82M542.25 54.82L541.35 56.62L538.55 55.82L539.45 53.02L542.25 53.82M542.25 54.82L541.35 56.62L538.55 55.82L539.45 53.02L542.25 53.82M546.45 54.82L545.65 56.62L542.85 55.82L543.65 53.02L546.45 53.82M546.45 54.82L545.65 56.62L542.85 55.82L543.65 53.02L546.45 53.82M550.65 54.82L549.85 56.62L547.05 55.82L547.85 53.02L550.65 53.82M550.65 54.82L549.85 56.62L547.05 55.82L547.85 53.02L550.65 53.82M537.95 59.02L537.15 60.82L534.35 60.02L535.15 57.22L537.95 58.02M537.95 59.02L537.15 60.82L534.35 60.02L535.15 57.22L537.95 58.02M554.85 59.02L554.05 60.82L551.25 60.02L552.05 57.22L554.85 58.02M554.85 59.02L554.05 60.82L551.25 60.02L552.05 57.22L554.85 58.02M537.95 63.32L537.15 65.12L534.35 64.22L535.15 61.52L537.95 62.22M537.95 63.32L537.15 65.12L534.35 64.22L535.15 61.52L537.95 62.22M554.85 63.32L554.05 65.12L551.25 64.22L552.05 61.52L554.85 62.22M554.85 63.32L554.05 65.12L551.25 64.22L552.05 61.52L554.85 62.22M537.95 67.52L537.15 69.32L534.35 68.52L535.15 65.72L537.95 66.52M537.95 67.52L537.15 69.32L534.35 68.52L535.15 65.72L537.95 66.52M542.25 67.52L541.35 69.32L538.55 68.52L539.35 65.72L542.15 66.52M542.25 67.52L541.35 69.32L538.55 68.52L539.35 65.72L542.15 66.52M546.45 67.52L545.65 69.32L542.85 68.52L543.65 65.72L546.45 66.52M546.45 67.52L545.65 69.32L542.85 68.52L543.65 65.72L546.45 66.52M550.65 67.52L549.85 69.32L547.05 68.52L547.85 65.72L550.65 66.52M550.65 67.52L549.85 69.32L547.05 68.52L547.85 65.72L550.65 66.52M537.95 71.72L537.15 73.52L534.35 72.72L535.15 69.92L537.95 70.72M537.95 71.72L537.15 73.52L534.35 72.72L535.15 69.92L537.95 70.72M546.45 71.72L545.65 73.52L542.85 72.72L543.65 69.92L546.45 70.72M546.45 71.72L545.65 73.52L542.85 72.72L543.65 69.92L546.45 70.72M537.95 75.92L537.15 77.72L534.35 76.92L535.15 74.12L537.95 75.02M537.95 75.92L537.15 77.72L534.35 76.92L535.15 74.12L537.95 75.02M550.65 75.92L549.85 77.72L547.05 76.92L547.85 74.12L550.65 75.02M550.65 75.92L549.85 77.72L547.05 76.92L547.85 74.12L550.65 75.02M537.95 80.22L537.15 82.02L534.35 81.12L535.15 78.42L537.95 79.22M537.95 80.22L537.15 82.02L534.35 81.12L535.15 78.42L537.95 79.22M554.85 80.22L554.05 82.02L551.25 81.12L552.05 78.42L554.85 79.22M554.85 80.22L554.05 82.02L551.25 81.12L552.05 78.42L554.85 79.22M567.55 54.82L566.75 56.62L563.95 55.82L564.75 53.02L567.55 53.82M567.55 54.82L566.75 56.62L563.95 55.82L564.75 53.02L567.55 53.82M584.45 54.82L583.65 56.62L580.85 55.82L581.65 53.02L584.45 53.82M584.45 54.82L583.65 56.62L580.85 55.82L581.65 53.02L584.45 53.82M567.55 59.02L566.75 60.82L563.95 60.02L564.75 57.22L567.55 58.02M567.55 59.02L566.75 60.82L563.95 60.02L564.75 57.22L567.55 58.02M580.25 59.02L579.45 60.82L576.65 60.02L577.45 57.22L580.25 58.02M580.25 59.02L579.45 60.82L576.65 60.02L577.45 57.22L580.25 58.02M567.55 63.32L566.75 65.12L563.95 64.22L564.75 61.52L567.55 62.22M567.55 63.32L566.75 65.12L563.95 64.22L564.75 61.52L567.55 62.22M576.05 63.32L575.25 65.12L572.45 64.22L573.25 61.52L576.05 62.22M576.05 63.32L575.25 65.12L572.45 64.22L573.25 61.52L576.05 62.22M567.55 67.52L566.75 69.32L563.95 68.52L564.75 65.72L567.55 66.52M567.55 67.52L566.75 69.32L563.95 68.52L564.75 65.72L567.55 66.52M571.75 67.52L570.95 69.32L568.15 68.52L568.95 65.72L571.75 66.52M571.75 67.52L570.95 69.32L568.15 68.52L568.95 65.72L571.75 66.52M576.05 67.52L575.25 69.32L572.45 68.52L573.25 65.72L576.05 66.52M576.05 67.52L575.25 69.32L572.45 68.52L573.25 65.72L576.05 66.52M580.25 67.52L579.45 69.32L576.65 68.52L577.45 65.72L580.25 66.52M580.25 67.52L579.45 69.32L576.65 68.52L577.45 65.72L580.25 66.52M567.55 71.72L566.75 73.52L563.95 72.72L564.75 69.92L567.55 70.72M567.55 71.72L566.75 73.52L563.95 72.72L564.75 69.92L567.55 70.72M584.45 71.72L583.65 73.52L580.85 72.72L581.65 69.92L584.45 70.72M584.45 71.72L583.65 73.52L580.85 72.72L581.65 69.92L584.45 70.72M567.55 75.92L566.75 77.72L563.95 76.92L564.75 74.12L567.55 75.02M567.55 75.92L566.75 77.72L563.95 76.92L564.75 74.12L567.55 75.02M584.45 75.92L583.65 77.72L580.85 76.92L581.65 74.12L584.45 75.02M584.45 75.92L583.65 77.72L580.85 76.92L581.65 74.12L584.45 75.02M567.55 80.22L566.75 82.02L563.95 81.12L564.75 78.42L567.55 79.22M567.55 80.22L566.75 82.02L563.95 81.12L564.75 78.42L567.55 79.22M584.45 80.22L583.65 82.02L580.85 81.12L581.65 78.42L584.45 79.22M584.45 80.22L583.65 82.02L580.85 81.12L581.65 78.42L584.45 79.22" fill="#A2A1A5"/>
</svg>
