<?xml version="1.0" encoding="utf-8"?>
<!-- Generator: Adobe Illustrator 25.2.1, SVG Export Plug-In . SVG Version: 6.00 Build 0)  -->
<svg version="1.1" id="图层_1" xmlns="http://www.w3.org/2000/svg" xmlns:xlink="http://www.w3.org/1999/xlink" x="0px" y="0px"
	 viewBox="0 0 152.6 25" style="enable-background:new 0 0 152.6 25;" xml:space="preserve">
<style type="text/css">
	.st0{fill:#004EA2;}
	.st1{fill:#FFFFFF;}
	.st2{fill:#F39700;}
</style>
<g>
	<g>
		<path class="st0" d="M115.8,0.8c-8.5,0.1-11.5,4.3-13.2,9.3c-2.5,9.2,0.5,13.3,7.4,14c7,0.2,11.7-1.9,14.2-9.3
			C126.9,6.5,125.1,1.1,115.8,0.8z M117.1,13.2c-1,3.9-3.3,6.7-5.3,6.2c-1.9-0.5-2.8-4-1.8-7.9c1-3.9,3.3-6.7,5.3-6.2
			C117.2,5.8,118,9.3,117.1,13.2z"/>
	</g>
	<g>
		<path class="st0" d="M146.6,0.8H145c-4.8,0-9.5,0-14.3,0l-2.2,9.1L125.1,24h8l1.2-5.1l3.3-13.9h4.5c1.3,0,2.3,1.3,2,2.6l-4,16.4
			l8,0c1-3.8,2.1-8.5,3-12.2c0.3-1.2,0.9-3.6,0.9-5.5c0-0.1,0-0.1,0-0.2C152,3.2,149.6,0.8,146.6,0.8z"/>
	</g>
	<g>
		<path class="st0" d="M102.8,2.9c0.3-1.1-0.6-2.2-1.7-2.2h0h-0.6H80.6l-1,4.2h7.8l-4.7,19l8.1,0l4.6-19h6.9L102.8,2.9z"/>
	</g>
	<g>
		<path class="st0" d="M21.4,0.8c-0.2,0-0.5,0-0.8-0.1h-0.4c0,0,0,0,0,0c-4.8,0-9.8,0-14.6,0L0,24h0l0,0l8.1,0l1.6-6.6l0-0.1l0-0.1
			c4.8,0.2,9.3-0.1,12.3-2c2.4-1.6,3.7-3.8,4.2-7.3c0.1-0.4,0.2-0.9,0.2-1.4c0-0.1,0-0.2,0-0.3C26.2,3.4,24.3,1.3,21.4,0.8z
			 M18.7,8.6c-0.4,1.8-2.1,3.8-4.7,4.2c-0.2,0-0.4,0.1-0.6,0.1C12.6,13,11.6,13,10.8,13h0l1.9-7.9l0-0.1h3.1h0.5
			c0.9,0,1.6,0.3,2,0.6C18.9,6.3,19,7.3,18.7,8.6z"/>
	</g>
	<g>
		<path class="st0" d="M70.8,0.7c-4.8,0-9.8,0-14.5,0L50.5,24l8.1,0l4.6-19h3.6c2.5,0.1,2.8,1.6,2.4,3.6c-0.4,1.9-2.4,4.1-5.4,4.3
			c6.5,1.2,13-0.9,13-6.3C76.9,3.2,74.4,0.7,70.8,0.7z"/>
	</g>
	<g>
		<path class="st1" d="M70.8,0.7c0.1,0,0.2,0,0.3,0H70.8z"/>
	</g>
	<g>
		<path class="st2" d="M61.9,13.3c2,2.4,3.2,6,4.2,9.2c0.3,1.1,0.8,1.6,2.2,1.6h6.7C73.8,19,69.1,13.7,61.9,13.3z"/>
	</g>
	<g>
		<path class="st0" d="M41.7,0.8C33.2,0.9,30.3,5,28.5,10C26,19.2,29,23.4,35.9,24c7,0.2,11.7-1.9,14.2-9.3
			C52.8,6.5,51,1.1,41.7,0.8z M43,13.2c-1,3.9-3.3,6.7-5.3,6.2c-1.9-0.5-2.8-4-1.8-7.9c1-3.9,3.3-6.7,5.3-6.2
			C43.1,5.8,43.9,9.3,43,13.2z"/>
	</g>
</g>
</svg>
