<svg version="1.2" xmlns="http://www.w3.org/2000/svg" viewBox="0 0 873 415" width="873" height="415">
	<title>logotip_Porton (1)-pdf</title>
	<defs>
		<clipPath clipPathUnits="userSpaceOnUse" id="cp1">
			<path d="m0 0h873v415h-873z"/>
		</clipPath>
	</defs>
	<style>
		.s0 { fill: #0155ae } 
		.s1 { fill: #ef7623 } 
		.s2 { fill: #2c2e35 } 
	</style>
	<g id="Page 1" clip-path="url(#cp1)">
		<path id="Path 1" fill-rule="evenodd" class="s0" d="m572.8 213.6c-6.9 20.8-20.3 26.8-40.1 26.3-19.7-1.8-28.1-13.5-21-39.6 4.9-14.2 13.2-26 37.3-26.3 26.3 1.1 31.3 16.4 23.8 39.6zm-25.3-26.8c-5.5-1.3-12.2 6.6-14.8 17.7-2.7 11-0.5 21.1 5 22.5 5.5 1.3 12.2-6.6 14.9-17.7 2.7-11.1 0.4-21.1-5.1-22.5zm103.7 3c0 5.5-1.7 12.3-2.5 15.6-2.5 10.4-5.8 23.7-8.5 34.6h-22.7l11.4-46.4c0.9-3.7-1.8-7.2-5.6-7.2h-0.1q-0.2 0-0.4 0h-6.7-5.5q0 0 0 0l-9.4 39.1-3.5 14.4h-22.4l9.6-40q0 0 0 0l6.3-25.9c13.4 0 26.8 0.1 40.3 0h4.6c8.3 0 15.1 6.8 15.1 15.2q0 0.3 0 0.6zm-138.8-9.6l-1.4 5.9h-19.6l-13 53.8h-22.9l13.4-53.8h-22.7l2.8-12.1h58.5c3.2 0 5.6 3 4.9 6.2zm-232.3-6.2q1.1 0 2.1 0.2c8.3 1.2 13.7 7.4 14.1 15.4q0 0.4 0 0.8 0 2.1-0.5 3.9c-1.4 9.9-5 16.3-11.9 20.7-8.4 5.4-21.2 6.2-34.7 5.8l-0.1 0.2v0.2l-4.5 18.7h-22.9l16.1-65.9zm-6.7 13.9c-1.1-1.1-2.9-1.7-5.5-1.8h-10.2l-0.1 0.4-5.4 22.3c2.5 0 5.1-0.1 7.7-0.4q0.7-0.2 1.5-0.3c7.4-1.2 12.2-6.9 13.2-11.9 0.8-3.5 0.7-6.5-1.2-8.3zm149.3-13.9q-0.5 0-0.9 0 0 0 0 0zm-0.9 0c10.4 0 17.3 7 17.3 16.4 0 15.3-18.5 21.4-36.8 17.9 8.4-0.4 13.9-6.6 15.1-12.1 1.2-5.6 0.4-9.8-6.7-10.1h-10.2l-13.1 53.8h-22.8l16.1-65.9c13.4 0 27.7 0 41.1 0z"/>
		<path id="Path 2" class="s1" d="m396.7 209.5c20.4 1.2 33.6 16.1 36.8 30.6h-18.9c-3.9 0-5.2-1.4-6.1-4.5-2.7-9.1-6.1-19.2-11.8-26.1z"/>
		<path id="Path 3" fill-rule="evenodd" class="s0" d="m363.5 213.6c-7 20.8-20.4 26.8-40.2 26.3-19.7-1.8-28.1-13.5-21-39.6 5-14.2 13.2-26 37.4-26.3 26.3 1.1 31.3 16.4 23.8 39.6zm-25.3-26.8c-5.6-1.3-12.2 6.6-14.9 17.7-2.7 11-0.4 21.1 5.1 22.5 5.5 1.3 12.1-6.6 14.8-17.7 2.7-11.1 0.5-21.1-5-22.5z"/>
		<path id="Porton PharmaTech, d.o.o." class="s2" aria-label="Porton PharmaTech, d.o.o."  d="m223.9 256.7h7.4q3.4 0 5.3 1.6 1.8 1.5 1.8 4.2 0 3.1-2.1 4.9-2.1 1.8-5.6 1.8h-5.1l-1.4 6.8h-4zm3.4 3.1l-1.2 6.3h4q2.1 0 3.1-0.8 1.1-0.8 1.1-2.6 0-1.4-0.9-2.1-0.8-0.8-2.5-0.8zm27.5 6.8q0 2.9-1.1 5.1-1.1 2.2-3.1 3.3-2.1 1.2-4.6 1.2-3 0-4.8-1.6-1.7-1.6-1.7-4.4 0-2.7 1.1-4.8 1.1-2.2 3.1-3.3 2-1.2 4.6-1.2 3.2 0 4.9 1.5 1.6 1.5 1.6 4.2zm-4 0.3q0-3.4-2.8-3.4-1.6 0-2.5 0.9-0.9 0.8-1.4 2.5-0.6 1.6-0.6 3.2 0 3.5 2.9 3.5 1.5 0 2.4-0.8 0.9-0.7 1.4-2.3 0.5-1.6 0.6-3.6zm17.4-5.8l-0.6 3.2q-0.9-0.2-1.6-0.2-1.6 0-2.7 1.2-1.1 1.2-1.5 3.6l-1.4 7.1h-3.9l2.2-11.4q0.4-1.6 0.6-3.4h3.7l-0.3 2.3-0.1 0.7q1-1.8 2-2.6 1-0.7 2.2-0.7 0.7 0 1.4 0.2zm4.2 15.1q-1.7 0-2.6-0.8-0.9-0.8-0.9-2.3 0-1 0.2-2.1l1.4-7.2h-2.1l0.5-2.6h2.3l1.8-3.5h2.4l-0.6 3.5h2.7l-0.4 2.6h-2.8l-1.5 7.3q-0.1 0.7-0.1 1.2 0 0.6 0.3 0.9 0.3 0.3 0.9 0.3 0.4 0 1.5-0.1l-0.5 2.5q-1.1 0.3-2.5 0.3zm20.7-9.6q0 2.9-1.1 5.1-1.1 2.2-3.2 3.3-2 1.2-4.6 1.2-3 0-4.7-1.6-1.7-1.6-1.7-4.4 0-2.7 1-4.8 1.1-2.2 3.1-3.3 2.1-1.2 4.6-1.2 3.2 0 4.9 1.5 1.7 1.5 1.7 4.2zm-4 0.3q0-3.4-2.9-3.4-1.5 0-2.5 0.9-0.9 0.8-1.4 2.5-0.5 1.6-0.5 3.2 0 3.5 2.8 3.5 1.6 0 2.5-0.8 0.9-0.7 1.4-2.3 0.5-1.6 0.6-3.6zm19.1 9.1h-3.8l1.6-8.2q0.4-1.7 0.4-2.2 0-1.8-2.1-1.8-1.4 0-2.6 1.1-1.1 1.2-1.4 2.8l-1.7 8.3h-3.8l2.3-11.7q0.2-1.1 0.5-3.1h3.6q0 0.1-0.1 1.1-0.1 1-0.2 1.4h0.1q1-1.4 2.2-2.1 1.3-0.7 2.9-0.7 2 0 3.1 1 1 1 1 2.9 0 0.3-0.1 1.1-0.1 0.7-0.2 1.1zm15.9-19.2h7.4q3.3 0 5.2 1.5 1.9 1.5 1.9 4.2 0 3.1-2.1 4.9-2.1 1.9-5.7 1.9h-5.1l-1.3 6.7h-4.1zm3.5 3.2l-1.2 6.2h3.9q2.1 0 3.2-0.8 1-0.8 1-2.6 0-1.4-0.8-2.1-0.9-0.7-2.6-0.7zm15.8-4.2h3.8l-1.1 5.5-0.5 2.5q1-1.4 2.3-2.1 1.2-0.7 2.8-0.7 2.1 0 3.2 1 1 1 1 2.9 0 0.4-0.1 1.1-0.1 0.8-0.2 1.2l-1.7 8.9h-3.8l1.6-8.1q0.3-1.7 0.3-2.3 0-1.8-2-1.8-1.4 0-2.6 1.2-1.2 1.1-1.5 2.7l-1.6 8.3h-3.8zm25.2 20.4q-1.4 0-2.1-0.5-0.8-0.6-0.8-1.6 0-0.5 0.1-0.8h-0.1q-1.1 1.7-2.3 2.4-1.1 0.7-2.7 0.7-1.9 0-3.1-1.2-1.1-1.1-1.1-2.9 0-2.5 1.8-3.8 1.7-1.3 5.6-1.4h2.6q0.3-1.3 0.3-1.8 0-1.8-1.7-1.8-1.3 0-1.9 0.5-0.7 0.5-0.9 1.5l-3.6-0.5q0.5-1.9 2.1-3 1.6-1 4.3-1 2.9 0 4.2 1 1.3 1 1.3 3.1 0 0.5-0.3 2.1l-1 4.8q-0.1 0.6-0.1 1 0 0.3 0.1 0.5 0.2 0.2 0.4 0.3 0.1 0.1 0.3 0.1 0.2 0 0.3 0 0.4 0 0.8-0.1l-0.2 2.1q-0.5 0.2-1.1 0.3-0.6 0-1.2 0zm-2.8-5.7l0.3-1.3h-2.2q-1.6 0-2.5 0.7-1 0.6-1 1.7 0 1 0.6 1.5 0.5 0.6 1.4 0.6 1.2 0 2.1-0.9 0.9-0.9 1.3-2.3zm18.6-9.3l-0.6 3.2q-0.9-0.2-1.6-0.2-1.6 0-2.7 1.2-1.1 1.2-1.5 3.7l-1.4 7h-3.9l2.2-11.4q0.4-1.6 0.6-3.4h3.7l-0.3 2.3-0.1 0.7q1-1.8 2-2.5 1-0.8 2.2-0.8 0.7 0 1.4 0.2zm17.1 2.7q-1.2 0-2.1 1-0.9 1.1-1.3 2.9l-1.6 8.3h-3.8l1.6-8.7q0.3-1.2 0.3-1.9 0-1.6-1.7-1.6-1.2 0-2.2 1-0.9 1.1-1.3 2.9l-1.6 8.3h-3.9l2.3-11.6q0.3-1.3 0.5-3.2h3.8q0 0.1-0.2 1.1-0.1 0.9-0.2 1.4 1.1-1.6 2.1-2.2 1-0.6 2.4-0.6 1.7 0 2.7 0.9 1 0.8 1.2 2.3 1.1-1.7 2.2-2.4 1.1-0.8 2.6-0.8 1.9 0 2.9 1 1 1 1 2.9 0 0.9-0.3 2.3l-1.7 8.9h-3.9l1.7-8.6q0.3-1.2 0.3-1.9v-0.1q-0.1-1.6-1.8-1.6zm19.4 12.3q-1.4 0-2.1-0.5-0.8-0.6-0.8-1.6 0-0.5 0.1-0.8h-0.1q-1.1 1.7-2.3 2.4-1.1 0.7-2.7 0.7-1.9 0-3.1-1.2-1.1-1.1-1.1-2.9 0-2.5 1.7-3.8 1.8-1.3 5.7-1.4h2.6q0.3-1.3 0.3-1.8 0-1.8-1.7-1.8-1.3 0-2 0.5-0.6 0.5-0.8 1.5l-3.6-0.5q0.5-1.9 2.1-3 1.6-1 4.3-1 2.9 0 4.2 1 1.3 1 1.3 3.1 0 0.5-0.3 2.1l-1 4.8q-0.1 0.6-0.1 1 0 0.3 0.1 0.5 0.2 0.2 0.3 0.3 0.2 0.1 0.4 0.1 0.2 0 0.3 0 0.4 0 0.8-0.1l-0.2 2.1q-0.5 0.2-1.1 0.3-0.6 0-1.2 0zm-2.8-5.7l0.3-1.3h-2.2q-1.6 0-2.6 0.7-0.9 0.6-0.9 1.7 0 1 0.6 1.5 0.5 0.6 1.4 0.6 1.2 0 2.1-0.9 0.9-0.9 1.3-2.3zm24.9-10.6h-6.2l-3.2 16.2h-4l3.2-16.2h-6.3l0.6-3.1h16.5zm12.4 9.7h-9.6q-0.1 0.5-0.1 1.2 0 1.4 0.6 2.2 0.7 0.8 1.9 0.8 2 0 2.9-2.3l3.4 1q-1 2.1-2.5 3-1.6 0.8-4 0.8-2.9 0-4.6-1.5-1.6-1.6-1.6-4.4 0-2.9 1-5 1-2.1 2.8-3.3 1.8-1.1 4.2-1.1 2.8 0 4.4 1.5 1.5 1.4 1.5 4.1 0 1.4-0.3 3zm-9.1-2.6h5.9v-0.8q0-1.4-0.7-2.1-0.7-0.7-1.7-0.7-1.4 0-2.3 1-0.9 0.9-1.2 2.6zm17.8 6.7q1.2 0 1.9-0.7 0.7-0.7 1.2-2.1l3.7 0.6q-1.5 4.8-7 4.8-3 0-4.6-1.5-1.6-1.5-1.6-4.3 0-2.6 1-5 1.1-2.3 2.9-3.4 1.8-1.1 4.5-1.1 2.6 0 4.1 1.3 1.6 1.3 1.8 3.6l-3.9 0.4q-0.2-2.7-2.3-2.7-1.5 0-2.3 1.1-0.8 1-1.5 3.5-0.3 1.6-0.3 2.3 0 3.2 2.4 3.2zm13-17.9h3.8l-1.1 5.5-0.5 2.5q1.1-1.4 2.3-2.1 1.2-0.7 2.8-0.7 2.1 0 3.2 1 1 1 1 2.9 0 0.3-0.1 1.1-0.1 0.7-0.2 1.1l-1.7 9h-3.8l1.6-8.2q0.3-1.7 0.3-2.2 0-1.8-2-1.8-1.4 0-2.6 1.1-1.2 1.2-1.5 2.8l-1.6 8.3h-3.8zm15.2 24.6h-2.5q1.1-1.1 1.8-2.2 0.7-1.1 0.9-2.1h-1.8l0.8-4.2h4l-0.7 3.3q-0.3 1.6-0.9 2.9-0.6 1.2-1.6 2.3zm24.3-6.5h-0.1q-1 1.2-2.1 1.8-1.1 0.6-2.8 0.6-2.1 0-3.3-1.3-1.2-1.4-1.2-3.8 0-2.6 0.8-5.1 0.9-2.5 2.5-3.8 1.6-1.3 3.8-1.3 3.5 0 4.3 2.7 0.1-0.3 0.2-0.8 0-0.6 0.2-1.4l1.2-5.7h3.7l-3.2 17.1q-0.3 1.5-0.4 3.2h-3.9q0-0.9 0.3-2.2zm-3.3-0.2q1.1 0 1.9-0.5 0.8-0.4 1.4-1.4 0.5-1 0.8-2.5 0.4-1.4 0.4-2.5 0-1.7-0.7-2.4-0.6-0.8-1.9-0.8-1.4 0-2.3 1-0.9 0.9-1.3 2.7-0.5 1.8-0.5 3.4 0 3 2.2 3zm14.9 2.4h-3.9l0.8-4.2h4zm19.7-9.3q0 2.8-1.2 5-1.1 2.2-3.1 3.4-2.1 1.2-4.6 1.2-3 0-4.7-1.6-1.8-1.6-1.8-4.4 0-2.8 1.1-4.9 1.1-2.1 3.1-3.3 2-1.2 4.6-1.2 3.2 0 4.9 1.5 1.7 1.5 1.7 4.3zm-4.1 0.2q0-3.3-2.8-3.3-1.6 0-2.5 0.8-0.9 0.8-1.4 2.5-0.5 1.7-0.5 3.2 0 3.5 2.8 3.5 1.5 0 2.4-0.7 0.9-0.8 1.4-2.4 0.5-1.6 0.6-3.6zm9.9 9.1h-4l0.8-4.2h4zm19.7-9.3q0 2.8-1.2 5-1.1 2.2-3.1 3.4-2 1.2-4.6 1.2-3 0-4.7-1.6-1.8-1.6-1.8-4.4 0-2.8 1.1-4.9 1.1-2.1 3.1-3.3 2-1.1 4.6-1.1 3.2 0 4.9 1.5 1.7 1.5 1.7 4.2zm-4 0.3q0-3.4-2.9-3.4-1.6 0-2.5 0.8-0.9 0.8-1.4 2.5-0.5 1.7-0.5 3.2 0 3.6 2.8 3.6 1.5 0 2.4-0.8 0.9-0.8 1.4-2.3 0.6-1.6 0.7-3.6zm9.8 9h-4l0.8-4.1h4z"/>
	</g>
</svg>